<svg xmlns="http://www.w3.org/2000/svg" width="692" height="94" fill="none" viewBox="0 0 692 94">
  <path fill="#000" d="M58.945 19.896c0 3.2-1.536 6.048-4.608 8.544-3.008 2.496-6.496 4.32-10.464 5.472-3.904 1.152-7.68 1.728-11.328 1.728-.96 0-1.664-.032-2.112-.096V32.28c.128 0 1.984-.288 5.568-.864 3.584-.64 6.592-1.728 9.024-3.264 2.496-1.536 3.744-3.264 3.744-5.184 0-2.304-1.728-3.456-5.184-3.456-4.672 0-9.088 1.6-13.248 4.8-4.16 3.2-6.24 6.56-6.24 10.08 0 3.52 2.176 5.792 6.528 6.816.96.256 1.6.512 1.92.768.32.256.48.704.48 1.344 0 .64-.32 1.184-.96 1.632-.576.384-1.952.96-4.128 1.728-11.776 4.032-17.664 10.304-17.664 18.816 0 1.728.32 3.2.96 4.416 3.904-4.992 8.96-9.056 15.168-12.192 6.208-3.136 12.192-4.704 17.952-4.704 3.008 0 5.408.672 7.2 2.016 1.792 1.28 2.688 3.072 2.688 5.376 0 3.584-1.664 7.168-4.992 10.752-3.328 3.584-7.648 6.496-12.96 8.736-5.248 2.304-10.496 3.456-15.744 3.456-5.184 0-9.28-.96-12.288-2.88-.064.064-.352.544-.864 1.44-1.28 2.56-2.368 4.352-3.264 5.376L.96 85.944c.448-1.792 1.76-4.512 3.936-8.16C1.953 74.456.48 70.744.48 66.648c0-4.16 1.664-8.096 4.992-11.808 3.392-3.776 8.096-6.88 14.112-9.312-3.008-2.496-4.512-5.088-4.512-7.776 0-3.648 1.92-7.36 5.76-11.136 3.84-3.84 8.512-6.944 14.016-9.312 5.568-2.368 10.784-3.552 15.648-3.552 2.56 0 4.608.576 6.144 1.728 1.536 1.088 2.304 2.56 2.304 4.416Zm-20.16 38.88c-3.776 0-8.192 1.44-13.248 4.32-4.992 2.88-9.056 6.304-12.192 10.272 2.56 2.88 6.176 4.32 10.848 4.32 4.736 0 9.344-1.504 13.824-4.512 4.544-3.072 6.816-6.368 6.816-9.888 0-1.408-.544-2.496-1.632-3.264-1.088-.832-2.56-1.248-4.416-1.248ZM53.76 5.688l-16.416 5.376-2.784-1.728 12.672-7.488 6.528 3.84Zm41.42 34.944 3.263 2.592c-8.512 11.2-14.272 20.544-17.28 28.032C80.14 73.752 78.668 75 76.748 75c-1.216 0-2.304-.64-3.264-1.92-.896-1.28-1.504-2.432-1.824-3.456-.256-1.088-.704-3.328-1.344-6.72a513.153 513.153 0 0 0-2.112-10.56c-.768-3.712-1.408-6.464-1.92-8.256-.448-1.856-.768-3.072-.96-3.648a2.865 2.865 0 0 0-.768-1.44c-.384-.448-.608-.736-.672-.864l6.24.576c1.856 4.544 3.328 9.472 4.416 14.784.256 1.088.704 3.296 1.344 6.624a799.25 799.25 0 0 0 1.536 7.68c3.52-6.784 6.592-12.288 9.216-16.512 2.688-4.288 5.536-7.84 8.544-10.656Zm46.26 24.672 2.208 1.632c-.896 1.92-2.56 3.744-4.992 5.472-2.368 1.728-4.544 2.592-6.528 2.592-3.776 0-5.664-1.984-5.664-5.952 0-1.856.48-4.064 1.44-6.624l-3.552 3.648c-3.456 3.52-6.464 5.888-9.024 7.104-2.496 1.216-4.96 1.824-7.392 1.824-2.432 0-4.288-.672-5.568-2.016-1.216-1.408-1.824-3.328-1.824-5.76 0-4.48 1.728-8.896 5.184-13.248 3.456-4.416 7.872-8 13.248-10.752 5.376-2.752 10.752-4.16 16.128-4.224l.192 3.168-4.032.864c-5.824 1.28-10.976 3.84-15.456 7.68-4.416 3.84-6.624 7.68-6.624 11.52 0 3.776 1.536 5.664 4.608 5.664 2.88 0 6.432-2.016 10.656-6.048s7.744-8.768 10.56-14.208l4.032 2.4c-3.968 8-5.952 13.088-5.952 15.264 0 .896.288 1.664.864 2.304.64.576 1.248.864 1.824.864.64 0 1.056-.032 1.248-.096l.576-.192c.192-.128.416-.288.672-.48.32-.192.576-.384.768-.576l1.152-.864a52.31 52.31 0 0 0 1.248-.96Zm18.792.48 2.016 1.632c-2.176 3.392-4.064 5.856-5.664 7.392-1.536 1.472-3.264 2.208-5.184 2.208-1.92 0-3.488-.768-4.704-2.304-1.216-1.536-1.824-3.456-1.824-5.76 0-4.48 2.944-14.112 8.832-28.896 5.888-14.848 11.936-27.904 18.144-39.168l4.224 2.304c-6.272 12.16-11.936 24.256-16.992 36.288-5.056 11.968-7.584 20.576-7.584 25.824 0 3.008 1.12 4.512 3.36 4.512 1.792 0 3.584-1.344 5.376-4.032Zm49.582-1.344 2.016 1.632c-1.088 2.688-2.816 4.96-5.184 6.816-2.304 1.856-4.416 2.784-6.336 2.784-1.856 0-3.328-.64-4.416-1.92-1.088-1.344-1.632-3.072-1.632-5.184s.352-4.832 1.056-8.16c-3.008 4.736-6.24 8.448-9.696 11.136-3.456 2.688-6.368 4.032-8.736 4.032-3.584 0-5.376-2.56-5.376-7.68 0-4.352 1.472-9.92 4.416-16.704 2.944-6.784 5.088-10.72 6.432-11.808l4.608 2.016c-2.624 4.224-4.608 8.384-5.952 12.48-1.344 4.096-2.016 6.848-2.016 8.256 0 1.344.416 2.432 1.248 3.264.896.832 1.92 1.248 3.072 1.248 2.56 0 5.728-2.336 9.504-7.008 3.84-4.736 7.744-11.776 11.712-21.12l4.896 2.208c-.128.512-1.6 4.224-4.416 11.136-2.752 6.912-4.128 11.072-4.128 12.48 0 1.344.288 2.368.864 3.072.64.704 1.248 1.056 1.824 1.056.64 0 1.12-.032 1.44-.096.32-.064.64-.192.96-.384.32-.192.576-.352.768-.48.256-.128.544-.352.864-.672l.768-.672c.128-.192.352-.48.672-.864.384-.448.64-.736.768-.864Zm30.666-.768 2.208 1.728c-1.984 2.752-4.704 5.056-8.16 6.912-3.456 1.792-6.816 2.688-10.08 2.688-3.264 0-5.888-.96-7.872-2.88s-2.976-4.448-2.976-7.584c0-5.888 3.104-11.68 9.312-17.376 6.272-5.696 12.608-8.544 19.008-8.544 4.224 0 6.336 1.664 6.336 4.992 0 3.456-2.24 6.944-6.72 10.464-4.416 3.52-10.656 6.72-18.72 9.6.576 1.472 1.472 2.624 2.688 3.456 1.216.832 2.464 1.248 3.744 1.248 2.752 0 6.496-1.568 11.232-4.704Zm-18.144-2.88c5.184-1.792 9.632-4.032 13.344-6.72 3.712-2.688 5.568-5.152 5.568-7.392 0-.832-.32-1.568-.96-2.208-.64-.64-1.376-.96-2.208-.96-3.008 0-6.272 1.888-9.792 5.664-3.456 3.712-5.44 7.584-5.952 11.616ZM338.432 21.72l-13.728-.288c-14.016 0-21.024 3.072-21.024 9.216 0 1.6.576 2.912 1.728 3.936 1.216.96 3.008 1.44 5.376 1.44 2.368 0 5.472-1.088 9.312-3.264l1.44 2.496c-1.984 2.112-4.224 3.776-6.72 4.992-2.496 1.216-4.992 1.824-7.488 1.824-2.496 0-4.64-.832-6.432-2.496-1.792-1.664-2.688-3.744-2.688-6.24 0-5.056 2.72-9.472 8.16-13.248 5.504-3.776 12.928-5.664 22.272-5.664.768 0 3.52.128 8.256.384 4.736.256 8.48.384 11.232.384 2.752 0 5.28-.416 7.584-1.248.896-.256 1.44-.384 1.632-.384.896 0 1.344.576 1.344 1.728 0 1.664-1.472 3.168-4.416 4.512-2.88 1.344-6.208 2.016-9.984 2.016-4.224 4.096-7.936 11.264-11.136 21.504-3.136 10.176-6.912 17.952-11.328 23.328-4.352 5.312-9.536 7.968-15.552 7.968-2.368 0-4.608-.768-6.72-2.304l2.208-3.648c.768.384 1.632.736 2.592 1.056l1.344.192c.32.064.8.096 1.44.096 3.2 0 6.048-1.536 8.544-4.608 2.56-3.072 5.216-8.864 7.968-17.376 2.816-8.576 4.992-14.24 6.528-16.992 1.6-2.816 4.352-5.92 8.256-9.312Zm26.56 24.768c1.664 2.752 2.496 5.792 2.496 9.12 0 5.184-1.792 9.824-5.376 13.92-3.584 4.032-7.808 6.048-12.672 6.048-3.712 0-6.624-1.056-8.736-3.168-2.048-2.176-3.072-5.152-3.072-8.928 0-6.08 2.368-11.52 7.104-16.32 4.736-4.864 10.048-7.296 15.936-7.296 1.088 0 1.856.032 2.304.096l.288 3.168c-5.12 0-9.376 1.472-12.768 4.416-3.392 2.944-5.088 6.72-5.088 11.328 0 2.752.672 4.992 2.016 6.72 1.344 1.664 3.296 2.496 5.856 2.496 2.624 0 4.704-1.152 6.24-3.456 1.536-2.304 2.304-4.992 2.304-8.064 0-3.136-.608-5.984-1.824-8.544l4.992-1.536Zm44.645 16.896 2.016 1.536a20.31 20.31 0 0 1-5.856 7.104c-2.432 1.92-4.64 2.88-6.624 2.88s-3.552-.576-4.704-1.728c-1.152-1.152-1.728-2.592-1.728-4.32 0-1.728 1.088-4.736 3.264-9.024 2.24-4.352 3.36-7.552 3.36-9.6 0-.896-.384-1.696-1.152-2.4-.704-.768-1.568-1.152-2.592-1.152-3.264 0-6.56 2.496-9.888 7.488-3.328 4.928-7.04 12.064-11.136 21.408l-5.76-2.016a153.041 153.041 0 0 1 5.184-21.696c2.304-7.104 4.416-12.192 6.336-15.264l3.936 1.248c-1.792 4.544-4.064 12.384-6.816 23.52 8.832-15.104 16.96-22.656 24.384-22.656 1.6 0 2.912.544 3.936 1.632 1.088 1.088 1.632 2.368 1.632 3.84s-.192 2.816-.576 4.032c-.384 1.152-1.6 3.904-3.648 8.256-1.984 4.288-2.976 6.976-2.976 8.064s.32 1.952.96 2.592c.64.576 1.248.864 1.824.864.576 0 1.056-.096 1.44-.288.384-.192.8-.48 1.248-.864.512-.384.96-.736 1.344-1.056.384-.32.832-.736 1.344-1.248.576-.576.992-.96 1.248-1.152Zm99.968-5.76 6.816-.096v3.936c-.768-.128-1.664-.192-2.688-.192-1.024 0-2.176.064-3.456.192 0 4.928-2.368 9.92-7.104 14.976-4.736 5.056-10.464 9.152-17.184 12.288-6.656 3.2-12.864 4.8-18.624 4.8-3.008 0-5.472-.768-7.392-2.304-1.856-1.536-2.784-3.552-2.784-6.048 0-3.712 2.464-7.584 7.392-11.616 4.928-4.032 10.688-7.36 17.28-9.984 6.592-2.624 12.544-4.16 17.856-4.608-.64-.96-1.632-1.792-2.976-2.496s-4.096-1.792-8.256-3.264c-4.16-1.536-7.104-3.2-8.832-4.992-1.728-1.856-2.592-4.448-2.592-7.776 0-3.328 1.792-7.136 5.376-11.424 3.584-4.288 7.808-7.872 12.672-10.752 4.928-2.944 9.248-4.416 12.96-4.416 1.664 0 3.04.608 4.128 1.824 1.088 1.152 1.632 2.592 1.632 4.32 0 2.816-1.696 6.368-5.088 10.656-3.392 4.224-7.168 7.456-11.328 9.696l-2.304-3.264c2.496-1.28 4.672-3.264 6.528-5.952 1.92-2.752 2.88-5.12 2.88-7.104s-1.056-2.976-3.168-2.976c-3.008 0-6.464 1.888-10.368 5.664-3.84 3.712-5.76 7.2-5.76 10.464 0 2.24.576 4 1.728 5.28 1.152 1.28 4.064 2.88 8.736 4.8 4.672 1.856 8 3.52 9.984 4.992 1.984 1.408 3.296 3.2 3.936 5.376ZM466.789 82.68c0 3.072 2.496 4.608 7.488 4.608 2.752 0 6.304-1.024 10.656-3.072 4.416-1.984 8.288-4.8 11.616-8.448 3.392-3.584 5.088-7.264 5.088-11.04 0-.448-.096-1.12-.288-2.016-8.768.832-16.736 3.296-23.904 7.392-7.104 4.096-10.656 8.288-10.656 12.576Zm94.652-17.376 2.208 1.632c-.896 1.92-2.56 3.744-4.992 5.472-2.368 1.728-4.544 2.592-6.528 2.592-3.776 0-5.664-1.984-5.664-5.952 0-1.856.48-4.064 1.44-6.624l-3.552 3.648c-3.456 3.52-6.464 5.888-9.024 7.104-2.496 1.216-4.96 1.824-7.392 1.824-2.432 0-4.288-.672-5.568-2.016-1.216-1.408-1.824-3.328-1.824-5.76 0-4.48 1.728-8.896 5.184-13.248 3.456-4.416 7.872-8 13.248-10.752 5.376-2.752 10.752-4.16 16.128-4.224l.192 3.168-4.032.864c-5.824 1.28-10.976 3.84-15.456 7.68-4.416 3.84-6.624 7.68-6.624 11.52 0 3.776 1.536 5.664 4.608 5.664 2.88 0 6.432-2.016 10.656-6.048s7.744-8.768 10.56-14.208l4.032 2.4c-3.968 8-5.952 13.088-5.952 15.264 0 .896.288 1.664.864 2.304.64.576 1.248.864 1.824.864.64 0 1.056-.032 1.248-.096l.576-.192c.192-.128.416-.288.672-.48.32-.192.576-.384.768-.576l1.152-.864a52.31 52.31 0 0 0 1.248-.96Zm35.208-24.672 3.264 2.592c-8.512 11.2-14.272 20.544-17.28 28.032-1.024 2.496-2.496 3.744-4.416 3.744-1.216 0-2.304-.64-3.264-1.92-.896-1.28-1.504-2.432-1.824-3.456-.256-1.088-.704-3.328-1.344-6.72a513.153 513.153 0 0 0-2.112-10.56c-.768-3.712-1.408-6.464-1.92-8.256-.448-1.856-.768-3.072-.96-3.648a2.865 2.865 0 0 0-.768-1.44c-.384-.448-.608-.736-.672-.864l6.24.576c1.856 4.544 3.328 9.472 4.416 14.784.256 1.088.704 3.296 1.344 6.624a799.25 799.25 0 0 0 1.536 7.68c3.52-6.784 6.592-12.288 9.216-16.512 2.688-4.288 5.536-7.84 8.544-10.656Zm32.437 5.856c1.664 2.752 2.496 5.792 2.496 9.12 0 5.184-1.792 9.824-5.376 13.92-3.584 4.032-7.808 6.048-12.672 6.048-3.712 0-6.624-1.056-8.736-3.168-2.048-2.176-3.072-5.152-3.072-8.928 0-6.08 2.368-11.52 7.104-16.32 4.736-4.864 10.048-7.296 15.936-7.296 1.088 0 1.856.032 2.304.096l.288 3.168c-5.12 0-9.376 1.472-12.768 4.416-3.392 2.944-5.088 6.72-5.088 11.328 0 2.752.672 4.992 2.016 6.72 1.344 1.664 3.296 2.496 5.856 2.496 2.624 0 4.704-1.152 6.24-3.456 1.536-2.304 2.304-4.992 2.304-8.064 0-3.136-.608-5.984-1.824-8.544l4.992-1.536Zm24.005-12.192c-3.584 0-5.376-1.44-5.376-4.32 0-1.6.448-2.944 1.344-4.032.896-1.088 2.048-1.632 3.456-1.632s2.56.416 3.456 1.248c.896.832 1.344 1.92 1.344 3.264 0 1.344-.384 2.592-1.152 3.744-.768 1.152-1.792 1.728-3.072 1.728Zm-1.248 28.32 1.92 1.632a24.315 24.315 0 0 1-6.144 7.584c-2.496 2.048-4.768 3.072-6.816 3.072-3.584 0-5.376-2.496-5.376-7.488 0-6.208 2.56-14.304 7.68-24.288a323.252 323.252 0 0 0 2.016-3.84l4.128 2.496c-1.344 2.432-3.008 6.304-4.992 11.616-1.92 5.312-2.88 8.736-2.88 10.272 0 1.472.32 2.528.96 3.168.64.64 1.408.96 2.304.96 1.728 0 4.128-1.728 7.2-5.184Zm34.231-21.6c1.6 0 2.912.544 3.936 1.632 1.024 1.088 1.536 2.496 1.536 4.224 0 3.456-1.984 7.104-5.952 10.944l-2.304-1.824c.896-1.984 1.344-3.424 1.344-4.32 0-1.728-.96-2.592-2.88-2.592s-3.744 1.216-5.472 3.648c-1.728 2.432-3.776 6.208-6.144 11.328-2.304 5.056-4.064 8.64-5.28 10.752l-5.472-2.4c3.52-8 5.536-12.704 6.048-14.112 1.728-4.992 2.592-11.328 2.592-19.008l5.376-1.44c-.192 4.16-.48 7.392-.864 9.696-.384 2.24-1.312 5.92-2.784 11.04 6.464-11.712 11.904-17.568 16.32-17.568Z"/>
</svg>
