<svg xmlns="http://www.w3.org/2000/svg" width="244" height="225" fill="none" viewBox="0 0 244 225">
  <path stroke="#636363" stroke-width="4" d="M79.06 48.494 122 6.787l88.131 85.601L122 177.99l-42.94-41.707c-24.958-24.242-24.958-63.547 0-87.79Z"/>
  <path stroke="#636363" stroke-width="4" d="M123 32.777c34.318 0 62 26.713 62 59.5 0 32.786-27.682 59.5-62 59.5-34.317 0-62-26.714-62-59.5 0-32.787 27.683-59.5 62-59.5Z"/>
  <path stroke="#636363" stroke-width="4" d="M74 128.777v-73h96v73H74Zm53 1v-74m1 44h42m-26 30v-29m-15 12h16m-6 1v-13m2 6h4"/>
  <path fill="#636363" d="M111.412 190.336c0 1.2-.576 2.268-1.728 3.204-1.128.936-2.436 1.62-3.924 2.052-1.464.432-2.88.648-4.248.648-.36 0-.624-.012-.792-.036v-1.224c.048 0 .744-.108 2.088-.324 1.344-.24 2.472-.648 3.384-1.224.936-.576 1.404-1.224 1.404-1.944 0-.864-.648-1.296-1.944-1.296-1.752 0-3.408.6-4.968 1.8-1.56 1.2-2.34 2.46-2.34 3.78 0 1.32.816 2.172 2.448 2.556.36.096.6.192.72.288.12.096.18.264.18.504s-.12.444-.36.612c-.216.144-.732.36-1.548.648-4.416 1.512-6.624 3.864-6.624 7.056 0 .648.12 1.2.36 1.656 1.464-1.872 3.36-3.396 5.688-4.572 2.328-1.176 4.572-1.764 6.732-1.764 1.128 0 2.028.252 2.7.756.672.48 1.008 1.152 1.008 2.016 0 1.344-.624 2.688-1.872 4.032-1.248 1.344-2.868 2.436-4.86 3.276-1.968.864-3.936 1.296-5.904 1.296-1.944 0-3.48-.36-4.608-1.08-.024.024-.132.204-.324.54-.48.96-.888 1.632-1.224 2.016l-1.188-.504c.168-.672.66-1.692 1.476-3.06-1.104-1.248-1.656-2.64-1.656-4.176 0-1.56.624-3.036 1.872-4.428 1.272-1.416 3.036-2.58 5.292-3.492-1.128-.936-1.692-1.908-1.692-2.916 0-1.368.72-2.76 2.16-4.176 1.44-1.44 3.192-2.604 5.256-3.492 2.088-.888 4.044-1.332 5.868-1.332.96 0 1.728.216 2.304.648.576.408.864.96.864 1.656Zm-7.56 14.58c-1.416 0-3.072.54-4.968 1.62-1.872 1.08-3.396 2.364-4.572 3.852.96 1.08 2.316 1.62 4.068 1.62 1.776 0 3.504-.564 5.184-1.692 1.704-1.152 2.556-2.388 2.556-3.708 0-.528-.204-.936-.612-1.224-.408-.312-.96-.468-1.656-.468Zm24.802-13.896-5.148-.108c-5.256 0-7.884 1.152-7.884 3.456 0 .6.216 1.092.648 1.476.456.36 1.128.54 2.016.54.888 0 2.052-.408 3.492-1.224l.54.936a8.62 8.62 0 0 1-2.52 1.872c-.936.456-1.872.684-2.808.684-.936 0-1.74-.312-2.412-.936-.672-.624-1.008-1.404-1.008-2.34 0-1.896 1.02-3.552 3.06-4.968 2.064-1.416 4.848-2.124 8.352-2.124.288 0 1.32.048 3.096.144 1.776.096 3.18.144 4.212.144 1.032 0 1.98-.156 2.844-.468.336-.096.54-.144.612-.144.336 0 .504.216.504.648 0 .624-.552 1.188-1.656 1.692-1.08.504-2.328.756-3.744.756-1.584 1.536-2.976 4.224-4.176 8.064-1.176 3.816-2.592 6.732-4.248 8.748-1.632 1.992-3.576 2.988-5.832 2.988-.888 0-1.728-.288-2.52-.864l.828-1.368c.288.144.612.276.972.396l.504.072c.12.024.3.036.54.036 1.2 0 2.268-.576 3.204-1.728.96-1.152 1.956-3.324 2.988-6.516 1.056-3.216 1.872-5.34 2.448-6.372.6-1.056 1.632-2.22 3.096-3.492Zm23.303 13.464 2.556-.036v1.476a6.202 6.202 0 0 0-1.008-.072c-.384 0-.816.024-1.296.072 0 1.848-.888 3.72-2.664 5.616-1.776 1.896-3.924 3.432-6.444 4.608-2.496 1.2-4.824 1.8-6.984 1.8-1.128 0-2.052-.288-2.772-.864-.696-.576-1.044-1.332-1.044-2.268 0-1.392.924-2.844 2.772-4.356 1.848-1.512 4.008-2.76 6.48-3.744 2.472-.984 4.704-1.56 6.696-1.728-.24-.36-.612-.672-1.116-.936-.504-.264-1.536-.672-3.096-1.224-1.56-.576-2.664-1.2-3.312-1.872-.648-.696-.972-1.668-.972-2.916s.672-2.676 2.016-4.284a18.287 18.287 0 0 1 4.752-4.032c1.848-1.104 3.468-1.656 4.86-1.656.624 0 1.14.228 1.548.684.408.432.612.972.612 1.62 0 1.056-.636 2.388-1.908 3.996-1.272 1.584-2.688 2.796-4.248 3.636l-.864-1.224c.936-.48 1.752-1.224 2.448-2.232.72-1.032 1.08-1.92 1.08-2.664 0-.744-.396-1.116-1.188-1.116-1.128 0-2.424.708-3.888 2.124-1.44 1.392-2.16 2.7-2.16 3.924 0 .84.216 1.5.648 1.98.432.48 1.524 1.08 3.276 1.8 1.752.696 3 1.32 3.744 1.872.744.528 1.236 1.2 1.476 2.016Zm-16.056 9.396c0 1.152.936 1.728 2.808 1.728 1.032 0 2.364-.384 3.996-1.152a13.126 13.126 0 0 0 4.356-3.168c1.272-1.344 1.908-2.724 1.908-4.14 0-.168-.036-.42-.108-.756-3.288.312-6.276 1.236-8.964 2.772-2.664 1.536-3.996 3.108-3.996 4.716Z"/>
</svg>
