<svg xmlns="http://www.w3.org/2000/svg" xmlns:xlink="http://www.w3.org/1999/xlink" xmlns:lucid="lucid" width="3449.63" height="1735.87"><g transform="translate(3581.9259074786123 -4048.4276649078524)" lucid:page-tab-id="0_0"><path d="M-4000 4000H0v2000h-4000z" fill="#fff"/><path d="M-712.8 5026.34a6 6 0 0 1 6-6h548a6 6 0 0 1 6 6v292a6 6 0 0 1-6 6h-548a6 6 0 0 1-6-6z" stroke="#3a414a" fill="#fcfcca"/><use xlink:href="#a" transform="matrix(1,0,0,1,-704.8002313714128,5028.337213459039) translate(239.47530864197532 148.88888888888889)"/><path d="M-3342.1 4600.06a6 6 0 0 1 6-6h148a6 6 0 0 1 6 6v116a6 6 0 0 1-6 6h-148a6 6 0 0 1-6-6z" stroke="#3a414a" fill="#ffd9d9"/><use xlink:href="#b" transform="matrix(1,0,0,1,-3334.092574145279,4602.062396546258) translate(-3.302469135802454 60.888888888888886)"/><path d="M-3559.1 4797.06a6 6 0 0 1 6-6h188a6 6 0 0 1 6 6v116a6 6 0 0 1-6 6h-188a6 6 0 0 1-6-6z" stroke="#3a414a" fill="#cfe4ff"/><use xlink:href="#c" transform="matrix(1,0,0,1,-3551.092574145279,4799.062396546258) translate(-8.833333333333329 60.888888888888886)"/><path d="M-1203.23 4780.6a6 6 0 0 1 6-6h148a6 6 0 0 1 6 6v116a6 6 0 0 1-6 6h-148a6 6 0 0 1-6-6z" stroke="#3a414a" fill="#c3f7c8"/><use xlink:href="#d" transform="matrix(1,0,0,1,-1195.235240459529,4782.60924805402) translate(-5.2376543209876445 60.888888888888886)"/><path d="M-1517.78 4383.57a6 6 0 0 1 6-6h148a6 6 0 0 1 6 6v116a6 6 0 0 1-6 6h-148a6 6 0 0 1-6-6z" stroke="#3a414a" fill="#c3f7c8"/><use xlink:href="#b" transform="matrix(1,0,0,1,-1509.7824196694296,4385.570622093432) translate(-3.302469135802454 60.888888888888886)"/><path d="M-2425.2 4600.06a6 6 0 0 1 6-6h168a6 6 0 0 1 6 6v116a6 6 0 0 1-6 6h-168a6 6 0 0 1-6-6z" stroke="#3a414a" fill="#cfe4ff"/><use xlink:href="#e" transform="matrix(1,0,0,1,-2417.20546651685,4602.062396546258) translate(-7.5277777777777715 60.888888888888886)"/><path d="M-2024.36 4282.56a6 6 0 0 1 6-6h188a6 6 0 0 1 6 6v116a6 6 0 0 1-6 6h-188a6 6 0 0 1-6-6z" stroke="#3a414a" fill="#c3f7c8"/><use xlink:href="#f" transform="matrix(1,0,0,1,-2016.3578865750826,4284.562446546259) translate(-7 60.888888888888886)"/><path d="M-2024.36 4472.06a6 6 0 0 1 6-6h188a6 6 0 0 1 6 6v116a6 6 0 0 1-6 6h-188a6 6 0 0 1-6-6z" stroke="#3a414a" fill="#c3f7c8"/><use xlink:href="#g" transform="matrix(1,0,0,1,-2016.3578865750826,4474.062396546258) translate(-5.709876543209873 60.888888888888886)"/><path d="M-1342.16 4538.2a6 6 0 0 1 6-6h352a6 6 0 0 1 6 6v170a6 6 0 0 1-6 6h-352a6 6 0 0 1-6-6z" stroke="#3a414a" fill="#fcfcca"/><use xlink:href="#h" transform="matrix(1,0,0,1,-1334.1606252129131,4540.187073749037) translate(119.10185185185188 87.8888888888889)"/><path d="M-2522.1 5376.13a6 6 0 0 1 6-6h148a6 6 0 0 1 6 6v116a6 6 0 0 1-6 6h-148a6 6 0 0 1-6-6z" stroke="#3a414a" fill="#fcfcca"/><use xlink:href="#i" transform="matrix(1,0,0,1,-2514.0925741452784,5378.132626950979) translate(-4.626543209876516 60.888888888888886)"/><path d="M-2485.2 4369.76a6 6 0 0 1 6-6h228a6 6 0 0 1 6 6v116a6 6 0 0 1-6 6h-228a6 6 0 0 1-6-6z" stroke="#3a414a" fill="#c3f7c8"/><use xlink:href="#j" transform="matrix(1,0,0,1,-2477.20546651685,4371.76204284159) translate(-6.691358024691368 60.888888888888886)"/><path d="M-2725.2 4369.76a6 6 0 0 1 6-6h208a6 6 0 0 1 6 6v116a6 6 0 0 1-6 6h-208a6 6 0 0 1-6-6z" stroke="#3a414a" fill="#c3f7c8"/><use xlink:href="#k" transform="matrix(1,0,0,1,-2717.20546651685,4371.76204284159) translate(-1.6851851851851904 60.888888888888886)"/><path d="M-1655.46 5376.13a6 6 0 0 1 6-6h148a6 6 0 0 1 6 6v116a6 6 0 0 1-6 6h-148a6 6 0 0 1-6-6z" stroke="#3a414a" fill="#fcfcca"/><use xlink:href="#l" transform="matrix(1,0,0,1,-1647.4636661105988,5378.132626950979) translate(15.06481481481483 60.888888888888886)"/><path d="M-2998.87 4369.76a6 6 0 0 1 6-6h241.66a6 6 0 0 1 6 6v116a6 6 0 0 1-6 6h-241.67a6 6 0 0 1-6-6z" stroke="#3a414a" fill="#c3f7c8"/><use xlink:href="#m" transform="matrix(1,0,0,1,-2990.8736599282593,4371.76204284159) translate(-9.774691358024711 60.888888888888886)"/><path d="M-2825.2 4139.46a6 6 0 0 1 6-6h148a6 6 0 0 1 6 6v116a6 6 0 0 1-6 6h-148a6 6 0 0 1-6-6z" stroke="#3a414a" fill="#c3f7c8"/><use xlink:href="#n" transform="matrix(1,0,0,1,-2817.20546651685,4141.461689136923) translate(23.145061728395078 60.888888888888886)"/><path d="M-1023.24 4780.6a6 6 0 0 1 6-6h148a6 6 0 0 1 6 6v116a6 6 0 0 1-6 6h-148a6 6 0 0 1-6-6z" stroke="#3a414a" fill="#c3f7c8"/><use xlink:href="#o" transform="matrix(1,0,0,1,-1015.235240459529,4782.60924805402) translate(4.234567901234584 60.888888888888886)"/><path d="M-2042.1 5064.84a6 6 0 0 1 6-6h148a6 6 0 0 1 6 6v116a6 6 0 0 1-6 6h-148a6 6 0 0 1-6-6z" stroke="#3a414a" fill="#ffd9d9"/><use xlink:href="#p" transform="matrix(1,0,0,1,-2034.0925741452788,5066.842239505268) translate(20.462962962962983 60.888888888888886)"/><path d="M-1051.88 5591.8a6 6 0 0 1 6-6h225.64a6 6 0 0 1 6 6v166a6 6 0 0 1-6 6h-225.64a6 6 0 0 1-6-6z" stroke="#3a414a" fill="#fcfcca"/><use xlink:href="#q" transform="matrix(1,0,0,1,-1043.8810058544595,5593.797768291004) translate(53.31790123456793 85.8888888888889)"/><path d="M-1343.16 4623.2h-234.1a6 6 0 0 1-6-6v-81.14a6 6 0 0 0-6-6h-218.2" stroke="#3a414a" fill="none"/><path d="M-1342.66 4623.7h-.5v-1h.5z" stroke="#3a414a" stroke-width=".05" fill="#3a414a"/><path d="M-1822.24 4530.06l14.27-4.63v9.27z" stroke="#3a414a" fill="#3a414a"/><path d="M-1343.16 4623.2h-234.1a6 6 0 0 1-6-6v-270.64a6 6 0 0 0-6-6h-218.2" stroke="#3a414a" fill="none"/><path d="M-1342.66 4623.7h-.5v-1h.5z" stroke="#3a414a" stroke-width=".05" fill="#3a414a"/><path d="M-1822.24 4340.56l14.27-4.63v9.27z" stroke="#3a414a" fill="#3a414a"/><path d="M-1160.16 4531.2v-83.63a6 6 0 0 0-6-6h-174.74" stroke="#3a414a" fill="none"/><path d="M-1159.66 4531.7h-1v-.53h1z" stroke="#3a414a" stroke-width=".05" fill="#3a414a"/><path d="M-1355.66 4441.57l14.26-4.63v9.27z" stroke="#3a414a" fill="#3a414a"/><path d="M-1160.16 4531.2v-474.77a6 6 0 0 0-6-6H-3453.1a6 6 0 0 0-6 6v717.75" stroke="#3a414a" fill="none"/><path d="M-1159.66 4531.7h-1v-.53h1z" stroke="#3a414a" stroke-width=".05" fill="#3a414a"/><path d="M-3459.1 4788.94l-4.63-14.26h9.27z" stroke="#3a414a" fill="#3a414a"/><path d="M-432.8 5019.34V4629.2a6 6 0 0 0-6-6h-522.48" stroke="#3a414a" fill="none"/><path d="M-432.3 5019.84h-1v-.52h1z" stroke="#3a414a" stroke-width=".05" fill="#3a414a"/><path d="M-976.04 4623.2l14.26-4.65v9.27z" stroke="#3a414a" fill="#3a414a"/><path d="M-432.8 5325.34v343.46a6 6 0 0 1-6 6h-358.55" stroke="#3a414a" fill="none"/><path d="M-432.3 5325.35h-1v-.5h1z" stroke="#3a414a" stroke-width=".05" fill="#3a414a"/><path d="M-812.12 5674.8l14.27-4.64v9.27z" stroke="#3a414a" fill="#3a414a"/><path d="M-2025.36 4340.56h-79.52a6 6 0 0 1-6-6v-131.1a6 6 0 0 0-6-6h-531.44" stroke="#3a414a" fill="none"/><path d="M-2024.86 4341.06h-.5v-1h.5z" stroke="#3a414a" stroke-width=".05" fill="#3a414a"/><path d="M-2663.1 4197.46l14.28-4.63v9.27z" stroke="#3a414a" fill="#3a414a"/><path d="M-2025.36 4340.56h-81.94a6 6 0 0 1-6-6V4112.2a6 6 0 0 0-6-6h-1136.8a6 6 0 0 0-6 6v464.98" stroke="#3a414a" fill="none"/><path d="M-2024.86 4341.06h-.5v-1h.5z" stroke="#3a414a" stroke-width=".05" fill="#3a414a"/><path d="M-3262.1 4591.94l-4.63-14.26h9.27z" stroke="#3a414a" fill="#3a414a"/><path d="M-2025.36 4340.56h-79.52a6 6 0 0 0-6 6v305.5a6 6 0 0 1-6 6h-111.44" stroke="#3a414a" fill="none"/><path d="M-2024.86 4341.06h-.5v-1h.5z" stroke="#3a414a" stroke-width=".05" fill="#3a414a"/><path d="M-2243.1 4658.06l14.28-4.63v9.27z" stroke="#3a414a" fill="#3a414a"/><path d="M-2025.36 4530.06h-79.52a6 6 0 0 1-6-6v-320.6a6 6 0 0 0-6-6h-531.44" stroke="#3a414a" fill="none"/><path d="M-2024.86 4530.56h-.5v-1h.5z" stroke="#3a414a" stroke-width=".05" fill="#3a414a"/><path d="M-2663.1 4197.46l14.28-4.63v9.27z" stroke="#3a414a" fill="#3a414a"/><path d="M-2025.36 4530.06h-79.52a6 6 0 0 0-6 6v116a6 6 0 0 1-6 6h-111.44" stroke="#3a414a" fill="none"/><path d="M-2024.86 4530.56h-.5v-1h.5z" stroke="#3a414a" stroke-width=".05" fill="#3a414a"/><path d="M-2243.1 4658.06l14.28-4.63v9.27z" stroke="#3a414a" fill="#3a414a"/><path d="M-2025.36 4530.06H-3256.1a6 6 0 0 0-6 6v41.12" stroke="#3a414a" fill="none"/><path d="M-2024.86 4530.56h-.5v-1h.5z" stroke="#3a414a" stroke-width=".05" fill="#3a414a"/><path d="M-3262.1 4591.94l-4.63-14.26h9.27z" stroke="#3a414a" fill="#3a414a"/><path d="M-1052.88 5674.8H-2329.2a6 6 0 0 1-6-6v-929.85" stroke="#3a414a" fill="none"/><path d="M-1052.38 5675.3h-.5v-1h.5z" stroke="#3a414a" stroke-width=".05" fill="#3a414a"/><path d="M-2335.2 4724.18l4.63 14.27h-9.27z" stroke="#3a414a" fill="#3a414a"/><path d="M-933.06 5584.8v-601.52a6 6 0 0 0-6-6h-178.17a6 6 0 0 1-6-6v-51.8" stroke="#3a414a" fill="none"/><path d="M-932.56 5585.3h-1v-.52h1z" stroke="#3a414a" stroke-width=".05" fill="#3a414a"/><path d="M-1123.23 4904.73l4.63 14.26h-9.27z" stroke="#3a414a" fill="#3a414a"/><path d="M-933.06 5584.8v-354.16a6 6 0 0 0-6-6H-1956.1a6 6 0 0 1-6-6v-14.9" stroke="#3a414a" fill="none"/><path d="M-932.56 5585.3h-1v-.52h1z" stroke="#3a414a" stroke-width=".05" fill="#3a414a"/><path d="M-1962.1 5188.96l4.64 14.27h-9.27z" stroke="#3a414a" fill="#3a414a"/><path d="M-933.06 5584.8v-602.43a5.1 5.1 0 0 0-5.1-5.1 5.1 5.1 0 0 1-5.08-5.08v-52.7" stroke="#3a414a" fill="none"/><path d="M-932.56 5585.3h-1v-.52h1z" stroke="#3a414a" stroke-width=".05" fill="#3a414a"/><path d="M-943.24 4904.73l4.64 14.26h-9.27z" stroke="#3a414a" fill="#3a414a"/><path d="M-1633.85 4797.06a6 6 0 0 1 6-6h148a6 6 0 0 1 6 6v116a6 6 0 0 1-6 6h-148a6 6 0 0 1-6-6z" stroke="#3a414a" fill="#c3f7c8"/><use xlink:href="#r" transform="matrix(1,0,0,1,-1625.853370070483,4799.062396546258) translate(-5.169753086419732 60.888888888888886)"/><path d="M-933.06 5584.8v-601.52a6 6 0 0 0-6-6h-608.8a6 6 0 0 1-6-6v-35.33" stroke="#3a414a" fill="none"/><path d="M-932.56 5585.3h-1v-.52h1z" stroke="#3a414a" stroke-width=".05" fill="#3a414a"/><path d="M-1553.85 4921.18l4.63 14.27h-9.27z" stroke="#3a414a" fill="#3a414a"/><path d="M-1052.88 5674.8h-516.58a6 6 0 0 1-6-6v-153.78" stroke="#3a414a" fill="none"/><path d="M-1052.38 5675.3h-.5v-1h.5z" stroke="#3a414a" stroke-width=".05" fill="#3a414a"/><path d="M-1575.46 5500.25l4.63 14.27h-9.27z" stroke="#3a414a" fill="#3a414a"/><path d="M-1052.88 5674.8h-1383.2a6 6 0 0 1-6-6v-153.78" stroke="#3a414a" fill="none"/><path d="M-1052.38 5675.3h-.5v-1h.5z" stroke="#3a414a" stroke-width=".05" fill="#3a414a"/><path d="M-2442.1 5500.25l4.64 14.27h-9.27z" stroke="#3a414a" fill="#3a414a"/><path d="M-2905.2 4605.06a6 6 0 0 1 6-6h148a6 6 0 0 1 6 6v116a6 6 0 0 1-6 6h-148a6 6 0 0 1-6-6z" stroke="#3a414a" fill="#c3f7c8"/><use xlink:href="#s" transform="matrix(1,0,0,1,-2897.20546651685,4607.0624965462575) translate(-2.5216049382715937 60.888888888888886)"/><path d="M-3130.6 4797.06a6 6 0 0 1 6-6h148a6 6 0 0 1 6 6v116a6 6 0 0 1-6 6h-148a6 6 0 0 1-6-6z" stroke="#3a414a" fill="#c3f7c8"/><use xlink:href="#t" transform="matrix(1,0,0,1,-3122.5968519695307,4799.062396546258) translate(-6.188271604938251 60.888888888888886)"/><path d="M-2093.25 5376.13a6 6 0 0 1 6-6h148a6 6 0 0 1 6 6v116a6 6 0 0 1-6 6h-148a6 6 0 0 1-6-6z" stroke="#3a414a" fill="#cfe4ff"/><use xlink:href="#u" transform="matrix(1,0,0,1,-2085.2540300990386,5378.132626950979) translate(6.237654320987687 60.888888888888886)"/><path d="M-2082.1 4797.06a6 6 0 0 1 6-6h228a6 6 0 0 1 6 6v116a6 6 0 0 1-6 6h-228a6 6 0 0 1-6-6z" stroke="#3a414a" fill="#c3f7c8"/><use xlink:href="#v" transform="matrix(1,0,0,1,-2074.092574145279,4799.062396546258) translate(-8.592592592592595 60.888888888888886)"/><path d="M-3156.1 4600.06a6 6 0 0 1 6-6h199a6 6 0 0 1 6 6v116a6 6 0 0 1-6 6h-199a6 6 0 0 1-6-6z" stroke="#3a414a" fill="#c3f7c8"/><use xlink:href="#w" transform="matrix(1,0,0,1,-3148.092574145279,4602.062396546258) translate(-2.1790123456789985 60.888888888888886)"/><path d="M-3225.2 4369.76a6 6 0 0 1 6-6h188a6 6 0 0 1 6 6v116a6 6 0 0 1-6 6h-188a6 6 0 0 1-6-6z" stroke="#3a414a" fill="#c3f7c8"/><use xlink:href="#x" transform="matrix(1,0,0,1,-3217.20546651685,4371.76204284159) translate(-11.277777777777771 60.888888888888886)"/><path d="M-2665.2 4605.06a6 6 0 0 1 6-6h148a6 6 0 0 1 6 6v116a6 6 0 0 1-6 6h-148a6 6 0 0 1-6-6z" stroke="#3a414a" fill="#ffd9d9"/><use xlink:href="#y" transform="matrix(1,0,0,1,-2657.20546651685,4607.0624965462575) translate(19.81790123456792 60.888888888888886)"/><path d="M-3342.1 4797.06a6 6 0 0 1 6-6h148a6 6 0 0 1 6 6v116a6 6 0 0 1-6 6h-148a6 6 0 0 1-6-6z" stroke="#3a414a" fill="#c3f7c8"/><use xlink:href="#z" transform="matrix(1,0,0,1,-3334.092574145279,4799.062396546258) translate(8.95370370370373 60.888888888888886)"/><path d="M-1290.93 5493.06a6 6 0 0 1 6-6h148a6 6 0 0 1 6 6v116a6 6 0 0 1-6 6h-148a6 6 0 0 1-6-6z" stroke="#3a414a" fill="#c3f7c8"/><use xlink:href="#A" transform="matrix(1,0,0,1,-1282.931118191519,5495.062396546258) translate(-11.450617283950606 60.888888888888886)"/><path d="M-1290.93 5257.78a6 6 0 0 1 6-6h148a6 6 0 0 1 6 6v116a6 6 0 0 1-6 6h-148a6 6 0 0 1-6-6z" stroke="#3a414a" fill="#c3f7c8"/><use xlink:href="#B" transform="matrix(1,0,0,1,-1282.931118191519,5259.775883482739) translate(0.09259259259259522 60.888888888888886)"/><path d="M-1853.13 5524.58a6 6 0 0 1 6-6h148a6 6 0 0 1 6 6v116a6 6 0 0 1-6 6h-148a6 6 0 0 1-6-6z" stroke="#3a414a" fill="#c3f7c8"/><use xlink:href="#C" transform="matrix(1,0,0,1,-1845.129885449901,5526.581940572012) translate(40.15432098765433 60.888888888888886)"/><path d="M-1594.83 5499.13v77.45a6 6 0 0 1-6 6h-75.42" stroke="#3a414a" fill="none"/><path d="M-1594.33 5499.15h-1v-.52h1z" stroke="#3a414a" stroke-width=".05" fill="#3a414a"/><path d="M-1691 5582.58l14.25-4.63v9.27z" stroke="#3a414a" fill="#3a414a"/><path d="M-1575.46 5369.13v-328.07a6 6 0 0 0-6-6h-316.43a6 6 0 0 1-6-6v-93.1" stroke="#3a414a" fill="none"/><path d="M-1574.96 5369.63h-1v-.5h1z" stroke="#3a414a" stroke-width=".05" fill="#3a414a"/><path d="M-1903.9 4921.18l4.64 14.27h-9.27z" stroke="#3a414a" fill="#3a414a"/><path d="M-1575.46 5369.13v-240.3a6 6 0 0 0-6-6h-283.75" stroke="#3a414a" fill="none"/><path d="M-1574.96 5369.63h-1v-.5h1z" stroke="#3a414a" stroke-width=".05" fill="#3a414a"/><path d="M-1879.97 5122.84l14.26-4.63v9.28z" stroke="#3a414a" fill="#3a414a"/><path d="M-1575.46 5369.13v-328.07a6 6 0 0 1 6-6h9.6a6 6 0 0 0 6-6v-93.1" stroke="#3a414a" fill="none"/><path d="M-1574.96 5369.63h-1v-.5h1z" stroke="#3a414a" stroke-width=".05" fill="#3a414a"/><path d="M-1553.85 4921.18l4.63 14.27h-9.27z" stroke="#3a414a" fill="#3a414a"/><path d="M-1494.46 5434.13h277.53a6 6 0 0 0 6-6v-31.47" stroke="#3a414a" fill="none"/><path d="M-1494.45 5434.63h-.5v-1h.5z" stroke="#3a414a" stroke-width=".05" fill="#3a414a"/><path d="M-1210.93 5381.9l4.63 14.26h-9.27z" stroke="#3a414a" fill="#3a414a"/><path d="M-1656.46 5434.13h-259.9" stroke="#3a414a" fill="none"/><path d="M-1655.96 5434.63h-.52v-1h.52z" stroke="#3a414a" stroke-width=".05" fill="#3a414a"/><path d="M-1931.14 5434.13l14.27-4.63v9.27z" stroke="#3a414a" fill="#3a414a"/><path d="M-2361.1 5434.13h250.96" stroke="#3a414a" fill="none"/><path d="M-2361.08 5434.63h-.5v-1h.5z" stroke="#3a414a" stroke-width=".05" fill="#3a414a"/><path d="M-2095.37 5434.13l-14.27 4.64v-9.27z" stroke="#3a414a" fill="#3a414a"/><path d="M-2442.1 5369.13v-240.3a6 6 0 0 1 6-6h377.12" stroke="#3a414a" fill="none"/><path d="M-2441.6 5369.63h-1v-.5h1z" stroke="#3a414a" stroke-width=".05" fill="#3a414a"/><path d="M-2044.2 5122.84l-14.28 4.64v-9.27z" stroke="#3a414a" fill="#3a414a"/><path d="M-2442.1 5369.13v-328.07a6 6 0 0 1 6-6h412.8a6 6 0 0 0 6-6v-93.1" stroke="#3a414a" fill="none"/><path d="M-2441.6 5369.63h-1v-.5h1z" stroke="#3a414a" stroke-width=".05" fill="#3a414a"/><path d="M-2017.3 4921.18l4.65 14.27h-9.27z" stroke="#3a414a" fill="#3a414a"/><path d="M-2442.1 5369.13v-328.07a6 6 0 0 0-6-6h-808a6 6 0 0 1-6-6v-93.1" stroke="#3a414a" fill="none"/><path d="M-2441.6 5369.63h-1v-.5h1z" stroke="#3a414a" stroke-width=".05" fill="#3a414a"/><path d="M-3262.1 4921.18l4.64 14.27h-9.27z" stroke="#3a414a" fill="#3a414a"/><path d="M-2442.1 5369.13v-328.07a6 6 0 0 1 6-6h94.9a6 6 0 0 0 6-6v-290.1" stroke="#3a414a" fill="none"/><path d="M-2441.6 5369.63h-1v-.5h1z" stroke="#3a414a" stroke-width=".05" fill="#3a414a"/><path d="M-2335.2 4724.18l4.63 14.27h-9.27z" stroke="#3a414a" fill="#3a414a"/><path d="M-2442.1 5369.13v-328.07a6 6 0 0 0-6-6h-1005a6 6 0 0 1-6-6v-93.1" stroke="#3a414a" fill="none"/><path d="M-2441.6 5369.63h-1v-.5h1z" stroke="#3a414a" stroke-width=".05" fill="#3a414a"/><path d="M-3459.1 4921.18l4.64 14.27h-9.27z" stroke="#3a414a" fill="#3a414a"/><path d="M-2442.1 5369.13v-328.07a6 6 0 0 0-6-6h-131.1a6 6 0 0 1-6-6v-285.1" stroke="#3a414a" fill="none"/><path d="M-2441.6 5369.63h-1v-.5h1z" stroke="#3a414a" stroke-width=".05" fill="#3a414a"/><path d="M-2585.2 4729.18l4.63 14.27h-9.27z" stroke="#3a414a" fill="#3a414a"/><path d="M-2442.1 5369.13v-328.07a6 6 0 0 0-6-6h-371.1a6 6 0 0 1-6-6v-285.1" stroke="#3a414a" fill="none"/><path d="M-2441.6 5369.63h-1v-.5h1z" stroke="#3a414a" stroke-width=".05" fill="#3a414a"/><path d="M-2825.2 4729.18l4.63 14.27h-9.27z" stroke="#3a414a" fill="#3a414a"/><path d="M-2442.1 5369.13v-328.07a6 6 0 0 0-6-6h-596.5a6 6 0 0 1-6-6v-93.1" stroke="#3a414a" fill="none"/><path d="M-2441.6 5369.63h-1v-.5h1z" stroke="#3a414a" stroke-width=".05" fill="#3a414a"/><path d="M-3050.6 4921.18l4.64 14.27h-9.27z" stroke="#3a414a" fill="#3a414a"/><path d="M-2442.1 5369.13v-47.35a6 6 0 0 1 6-6h1128.28" stroke="#3a414a" fill="none"/><path d="M-2441.6 5369.63h-1v-.5h1z" stroke="#3a414a" stroke-width=".05" fill="#3a414a"/><path d="M-1293.05 5315.78l-14.27 4.63v-9.26z" stroke="#3a414a" fill="#3a414a"/><path d="M-1210.93 5250.78v-209.72a6 6 0 0 0-6-6h-330.92a6 6 0 0 1-6-6v-93.1" stroke="#3a414a" fill="none"/><path d="M-1210.43 5251.28h-1v-.52h1z" stroke="#3a414a" stroke-width=".05" fill="#3a414a"/><path d="M-1553.85 4921.18l4.63 14.27h-9.27z" stroke="#3a414a" fill="#3a414a"/><path d="M-2745.2 4262.46v44.15a6 6 0 0 1-6 6h-368a6 6 0 0 0-6 6v28.28" stroke="#3a414a" fill="none"/><path d="M-2744.7 4262.47h-1v-.5h1z" stroke="#3a414a" stroke-width=".05" fill="#3a414a"/><path d="M-3125.2 4361.64l-4.64-14.26h9.27z" stroke="#3a414a" fill="#3a414a"/><path d="M-2745.2 4262.46v44.15a6 6 0 0 1-6 6h-114.84a6 6 0 0 0-6 6v28.28" stroke="#3a414a" fill="none"/><path d="M-2744.7 4262.47h-1v-.5h1z" stroke="#3a414a" stroke-width=".05" fill="#3a414a"/><path d="M-2872.04 4361.64l-4.64-14.26h9.28z" stroke="#3a414a" fill="#3a414a"/><path d="M-2745.2 4262.46v44.15a6 6 0 0 0 6 6h115a6 6 0 0 1 6 6v28.28" stroke="#3a414a" fill="none"/><path d="M-2744.7 4262.47h-1v-.5h1z" stroke="#3a414a" stroke-width=".05" fill="#3a414a"/><path d="M-2618.2 4361.64l-4.64-14.26h9.27z" stroke="#3a414a" fill="#3a414a"/><path d="M-2745.2 4262.46v44.15a6 6 0 0 0 6 6h368a6 6 0 0 1 6 6v28.28" stroke="#3a414a" fill="none"/><path d="M-2744.7 4262.47h-1v-.5h1z" stroke="#3a414a" stroke-width=".05" fill="#3a414a"/><path d="M-2365.2 4361.64l-4.64-14.26h9.27z" stroke="#3a414a" fill="#3a414a"/><path d="M-3262.1 4790.06v-51.1" stroke="#3a414a" fill="none"/><path d="M-3261.6 4790.56h-1v-.5h1z" stroke="#3a414a" stroke-width=".05" fill="#3a414a"/><path d="M-3262.1 4724.18l4.64 14.27h-9.27z" stroke="#3a414a" fill="#3a414a"/><path d="M-3050.6 4790.06v-51.1" stroke="#3a414a" fill="none"/><path d="M-3050.1 4790.56h-1v-.5h1z" stroke="#3a414a" stroke-width=".05" fill="#3a414a"/><path d="M-3050.6 4724.18l4.64 14.27h-9.27z" stroke="#3a414a" fill="#3a414a"/><path d="M-823.24 4780.6a6 6 0 0 1 6-6h228a6 6 0 0 1 6 6v116a6 6 0 0 1-6 6h-228a6 6 0 0 1-6-6z" stroke="#3a414a" fill="#c3f7c8"/><use xlink:href="#j" transform="matrix(1,0,0,1,-815.235240459529,4782.60924805402) translate(-6.691358024691368 60.888888888888886)"/><path d="M-933.06 5584.8v-601.52a6 6 0 0 1 6-6h217.82a6 6 0 0 0 6-6v-51.8" stroke="#3a414a" fill="none"/><path d="M-932.56 5585.3h-1v-.52h1z" stroke="#3a414a" stroke-width=".05" fill="#3a414a"/><path d="M-703.24 4904.73l4.64 14.26h-9.27z" stroke="#3a414a" fill="#3a414a"/><path d="M-1494.46 5434.13h277.53a6 6 0 0 1 6 6v30.05" stroke="#3a414a" fill="none"/><path d="M-1494.45 5434.63h-.5v-1h.5z" stroke="#3a414a" stroke-width=".05" fill="#3a414a"/><path d="M-1210.93 5484.94l-4.64-14.26h9.27z" stroke="#3a414a" fill="#3a414a"/><path d="M-783.24 5406a6 6 0 0 1 6-6H-506a6 6 0 0 1 6 6v116a6 6 0 0 1-6 6h-271.24a6 6 0 0 1-6-6z" stroke="#3a414a" fill="#cfe4ff"/><use xlink:href="#D" transform="matrix(1,0,0,1,-775.235240459529,5408) translate(5.157407407407391 60.888888888888886)"/><path d="M-933.06 5584.8V5470a6 6 0 0 1 6-6h126.94" stroke="#3a414a" fill="none"/><path d="M-932.56 5585.3h-1v-.52h1z" stroke="#3a414a" stroke-width=".05" fill="#3a414a"/><path d="M-785.35 5464l-14.27 4.64v-9.28z" stroke="#3a414a" fill="#3a414a"/><path d="M-3280 5246a6 6 0 0 1 6-6h542.8a6 6 0 0 1 6 6v308a6 6 0 0 1-6 6H-3274a6 6 0 0 1-6-6z" stroke="#3a414a" fill="#fff"/><path d="M-3280 5246a6 6 0 0 1 6-6h265.9a6 6 0 0 1 6 6v48a6 6 0 0 1-6 6H-3274a6 6 0 0 1-6-6z" stroke="#3a414a" fill="#fff"/><use xlink:href="#E" transform="matrix(1,0,0,1,-3275,5245) translate(70.22222222222223 31.138888888888886)"/><path d="M-3247.88 5345.34a6 6 0 0 1 6-6H-3066a6 6 0 0 1 6 6v69a6 6 0 0 1-6 6h-175.88a6 6 0 0 1-6-6z" stroke="#3a414a" fill="#fcfcca"/><use xlink:href="#F" transform="matrix(1,0,0,1,-3239.8781621143726,5347.337213459039) translate(57.48148148148149 37.388888888888886)"/><path d="M-3247.88 5446a6 6 0 0 1 6-6H-3066a6 6 0 0 1 6 6v69a6 6 0 0 1-6 6h-175.88a6 6 0 0 1-6-6z" stroke="#3a414a" fill="#c3f7c8"/><use xlink:href="#G" transform="matrix(1,0,0,1,-3239.8781621143726,5448) translate(23.598765432098787 37.388888888888886)"/><path d="M-3002.1 5345.34a6 6 0 0 1 6-6h175.9a6 6 0 0 1 6 6v69a6 6 0 0 1-6 6h-175.9a6 6 0 0 1-6-6z" stroke="#3a414a" fill="#cfe4ff"/><use xlink:href="#H" transform="matrix(1,0,0,1,-2994.092574145279,5347.337213459039) translate(45.32716049382717 37.388888888888886)"/><path d="M-3002.1 5446a6 6 0 0 1 6-6h175.9a6 6 0 0 1 6 6v69a6 6 0 0 1-6 6h-175.9a6 6 0 0 1-6-6z" stroke="#3a414a" fill="#ffd9d9"/><use xlink:href="#I" transform="matrix(1,0,0,1,-2994.092574145279,5448) translate(59.552469135802475 37.388888888888886)"/><defs><path fill="#3a414a" d="M197 0v-115H63V0H30v-248h33v105h134v-105h34V0h-34" id="J"/><path fill="#3a414a" d="M100-194c62-1 85 37 85 99 1 63-27 99-86 99S16-35 15-95c0-66 28-99 85-99zM99-20c44 1 53-31 53-75 0-43-8-75-51-75s-53 32-53 75 10 74 51 75" id="K"/><path fill="#3a414a" d="M210-169c-67 3-38 105-44 169h-31v-121c0-29-5-50-35-48C34-165 62-65 56 0H25l-1-190h30c1 10-1 24 2 32 10-44 99-50 107 0 11-21 27-35 58-36 85-2 47 119 55 194h-31v-121c0-29-5-49-35-48" id="L"/><path fill="#3a414a" d="M100-194c63 0 86 42 84 106H49c0 40 14 67 53 68 26 1 43-12 49-29l28 8c-11 28-37 45-77 45C44 4 14-33 15-96c1-61 26-98 85-98zm52 81c6-60-76-77-97-28-3 7-6 17-6 28h103" id="M"/><g id="a"><use transform="matrix(0.06790123456790122,0,0,0.06790123456790122,0,0)" xlink:href="#J"/><use transform="matrix(0.06790123456790122,0,0,0.06790123456790122,17.586419753086414,0)" xlink:href="#K"/><use transform="matrix(0.06790123456790122,0,0,0.06790123456790122,31.166666666666657,0)" xlink:href="#L"/><use transform="matrix(0.06790123456790122,0,0,0.06790123456790122,51.469135802469125,0)" xlink:href="#M"/></g><path fill="#3a414a" d="M140-251c81 0 123 46 123 126C263-53 228-8 163 1c7 30 30 48 69 40v23c-55 16-95-15-103-61C56-3 17-48 17-125c0-80 42-126 123-126zm0 227c63 0 89-41 89-101s-29-99-89-99c-61 0-89 39-89 99S79-25 140-24" id="N"/><path fill="#3a414a" d="M84 4C-5 8 30-112 23-190h32v120c0 31 7 50 39 49 72-2 45-101 50-169h31l1 190h-30c-1-10 1-25-2-33-11 22-28 36-60 37" id="O"/><path fill="#3a414a" d="M135-143c-3-34-86-38-87 0 15 53 115 12 119 90S17 21 10-45l28-5c4 36 97 45 98 0-10-56-113-15-118-90-4-57 82-63 122-42 12 7 21 19 24 35" id="P"/><path fill="#3a414a" d="M59-47c-2 24 18 29 38 22v24C64 9 27 4 27-40v-127H5v-23h24l9-43h21v43h35v23H59v120" id="Q"/><path fill="#3a414a" d="M24-231v-30h32v30H24zM24 0v-190h32V0H24" id="R"/><path fill="#3a414a" d="M117-194c89-4 53 116 60 194h-32v-121c0-31-8-49-39-48C34-167 62-67 57 0H25l-1-190h30c1 10-1 24 2 32 11-22 29-35 61-36" id="S"/><path fill="#3a414a" d="M127-220V0H93v-220H8v-28h204v28h-85" id="T"/><path fill="#3a414a" d="M179-190L93 31C79 59 56 82 12 73V49c39 6 53-20 64-50L1-190h34L92-34l54-156h33" id="U"/><path fill="#3a414a" d="M115-194c55 1 70 41 70 98S169 2 115 4C84 4 66-9 55-30l1 105H24l-1-265h31l2 30c10-21 28-34 59-34zm-8 174c40 0 45-34 45-75s-6-73-45-74c-42 0-51 32-51 76 0 43 10 73 51 73" id="V"/><g id="b"><use transform="matrix(0.06790123456790122,0,0,0.06790123456790122,0,0)" xlink:href="#N"/><use transform="matrix(0.06790123456790122,0,0,0.06790123456790122,19.01234567901234,0)" xlink:href="#O"/><use transform="matrix(0.06790123456790122,0,0,0.06790123456790122,32.59259259259258,0)" xlink:href="#M"/><use transform="matrix(0.06790123456790122,0,0,0.06790123456790122,46.17283950617282,0)" xlink:href="#P"/><use transform="matrix(0.06790123456790122,0,0,0.06790123456790122,58.39506172839504,0)" xlink:href="#Q"/><use transform="matrix(0.06790123456790122,0,0,0.06790123456790122,65.18518518518516,0)" xlink:href="#R"/><use transform="matrix(0.06790123456790122,0,0,0.06790123456790122,70.54938271604937,0)" xlink:href="#K"/><use transform="matrix(0.06790123456790122,0,0,0.06790123456790122,84.1296296296296,0)" xlink:href="#S"/><use transform="matrix(0.06790123456790122,0,0,0.06790123456790122,97.70987654320984,0)" xlink:href="#T"/><use transform="matrix(0.06790123456790122,0,0,0.06790123456790122,111.2222222222222,0)" xlink:href="#U"/><use transform="matrix(0.06790123456790122,0,0,0.06790123456790122,123.4444444444444,0)" xlink:href="#V"/><use transform="matrix(0.06790123456790122,0,0,0.06790123456790122,137.02469135802465,0)" xlink:href="#M"/></g><path fill="#3a414a" d="M266 0h-40l-56-210L115 0H75L2-248h35L96-30l15-64 43-154h32l59 218 59-218h35" id="W"/><path fill="#3a414a" d="M115-194c53 0 69 39 70 98 0 66-23 100-70 100C84 3 66-7 56-30L54 0H23l1-261h32v101c10-23 28-34 59-34zm-8 174c40 0 45-34 45-75 0-40-5-75-45-74-42 0-51 32-51 76 0 43 10 73 51 73" id="X"/><path fill="#3a414a" d="M96-169c-40 0-48 33-48 73s9 75 48 75c24 0 41-14 43-38l32 2c-6 37-31 61-74 61-59 0-76-41-82-99-10-93 101-131 147-64 4 7 5 14 7 22l-32 3c-4-21-16-35-41-35" id="Y"/><path fill="#3a414a" d="M143 0L79-87 56-68V0H24v-261h32v163l83-92h37l-77 82L181 0h-38" id="Z"/><path fill="#3a414a" d="M185-189c-5-48-123-54-124 2 14 75 158 14 163 119 3 78-121 87-175 55-17-10-28-26-33-46l33-7c5 56 141 63 141-1 0-78-155-14-162-118-5-82 145-84 179-34 5 7 8 16 11 25" id="aa"/><path fill="#3a414a" d="M114-163C36-179 61-72 57 0H25l-1-190h30c1 12-1 29 2 39 6-27 23-49 58-41v29" id="ab"/><path fill="#3a414a" d="M108 0H70L1-190h34L89-25l56-165h34" id="ac"/><g id="c"><use transform="matrix(0.06790123456790122,0,0,0.06790123456790122,0,0)" xlink:href="#W"/><use transform="matrix(0.06790123456790122,0,0,0.06790123456790122,22.5432098765432,0)" xlink:href="#M"/><use transform="matrix(0.06790123456790122,0,0,0.06790123456790122,36.12345679012344,0)" xlink:href="#X"/><use transform="matrix(0.06790123456790122,0,0,0.06790123456790122,49.70370370370368,0)" xlink:href="#P"/><use transform="matrix(0.06790123456790122,0,0,0.06790123456790122,61.9259259259259,0)" xlink:href="#K"/><use transform="matrix(0.06790123456790122,0,0,0.06790123456790122,75.50617283950615,0)" xlink:href="#Y"/><use transform="matrix(0.06790123456790122,0,0,0.06790123456790122,87.72839506172836,0)" xlink:href="#Z"/><use transform="matrix(0.06790123456790122,0,0,0.06790123456790122,99.95061728395058,0)" xlink:href="#M"/><use transform="matrix(0.06790123456790122,0,0,0.06790123456790122,113.53086419753082,0)" xlink:href="#Q"/><use transform="matrix(0.06790123456790122,0,0,0.06790123456790122,120.32098765432094,0)" xlink:href="#aa"/><use transform="matrix(0.06790123456790122,0,0,0.06790123456790122,136.61728395061724,0)" xlink:href="#M"/><use transform="matrix(0.06790123456790122,0,0,0.06790123456790122,150.1975308641975,0)" xlink:href="#ab"/><use transform="matrix(0.06790123456790122,0,0,0.06790123456790122,158.27777777777774,0)" xlink:href="#ac"/><use transform="matrix(0.06790123456790122,0,0,0.06790123456790122,170.5,0)" xlink:href="#R"/><use transform="matrix(0.06790123456790122,0,0,0.06790123456790122,175.86419753086417,0)" xlink:href="#Y"/><use transform="matrix(0.06790123456790122,0,0,0.06790123456790122,188.0864197530864,0)" xlink:href="#M"/></g><path fill="#3a414a" d="M143 4C61 4 22-44 18-125c-5-107 100-154 193-111 17 8 29 25 37 43l-32 9c-13-25-37-40-76-40-61 0-88 39-88 99 0 61 29 100 91 101 35 0 62-11 79-27v-45h-74v-28h105v86C228-13 192 4 143 4" id="ad"/><path fill="#3a414a" d="M33 0v-248h34V0H33" id="ae"/><path fill="#3a414a" d="M63-220v92h138v28H63V0H30v-248h175v28H63" id="af"/><path fill="#3a414a" d="M24 0v-261h32V0H24" id="ag"/><path fill="#3a414a" d="M141-36C126-15 110 5 73 4 37 3 15-17 15-53c-1-64 63-63 125-63 3-35-9-54-41-54-24 1-41 7-42 31l-33-3c5-37 33-52 76-52 45 0 72 20 72 64v82c-1 20 7 32 28 27v20c-31 9-61-2-59-35zM48-53c0 20 12 33 32 33 41-3 63-29 60-74-43 2-92-5-92 41" id="ah"/><g id="d"><use transform="matrix(0.06790123456790122,0,0,0.06790123456790122,0,0)" xlink:href="#ad"/><use transform="matrix(0.06790123456790122,0,0,0.06790123456790122,19.01234567901234,0)" xlink:href="#ae"/><use transform="matrix(0.06790123456790122,0,0,0.06790123456790122,25.80246913580246,0)" xlink:href="#af"/><use transform="matrix(0.06790123456790122,0,0,0.06790123456790122,40.67283950617283,0)" xlink:href="#T"/><use transform="matrix(0.06790123456790122,0,0,0.06790123456790122,55.543209876543195,0)" xlink:href="#T"/><use transform="matrix(0.06790123456790122,0,0,0.06790123456790122,67.69753086419752,0)" xlink:href="#M"/><use transform="matrix(0.06790123456790122,0,0,0.06790123456790122,81.27777777777776,0)" xlink:href="#L"/><use transform="matrix(0.06790123456790122,0,0,0.06790123456790122,101.58024691358023,0)" xlink:href="#V"/><use transform="matrix(0.06790123456790122,0,0,0.06790123456790122,115.16049382716047,0)" xlink:href="#ag"/><use transform="matrix(0.06790123456790122,0,0,0.06790123456790122,120.52469135802465,0)" xlink:href="#ah"/><use transform="matrix(0.06790123456790122,0,0,0.06790123456790122,134.1049382716049,0)" xlink:href="#Q"/><use transform="matrix(0.06790123456790122,0,0,0.06790123456790122,140.89506172839504,0)" xlink:href="#M"/></g><g id="e"><use transform="matrix(0.06790123456790122,0,0,0.06790123456790122,0,0)" xlink:href="#N"/><use transform="matrix(0.06790123456790122,0,0,0.06790123456790122,19.01234567901234,0)" xlink:href="#O"/><use transform="matrix(0.06790123456790122,0,0,0.06790123456790122,32.59259259259258,0)" xlink:href="#M"/><use transform="matrix(0.06790123456790122,0,0,0.06790123456790122,46.17283950617282,0)" xlink:href="#P"/><use transform="matrix(0.06790123456790122,0,0,0.06790123456790122,58.39506172839504,0)" xlink:href="#Q"/><use transform="matrix(0.06790123456790122,0,0,0.06790123456790122,65.18518518518516,0)" xlink:href="#R"/><use transform="matrix(0.06790123456790122,0,0,0.06790123456790122,70.54938271604937,0)" xlink:href="#K"/><use transform="matrix(0.06790123456790122,0,0,0.06790123456790122,84.1296296296296,0)" xlink:href="#S"/><use transform="matrix(0.06790123456790122,0,0,0.06790123456790122,97.70987654320984,0)" xlink:href="#aa"/><use transform="matrix(0.06790123456790122,0,0,0.06790123456790122,114.00617283950612,0)" xlink:href="#M"/><use transform="matrix(0.06790123456790122,0,0,0.06790123456790122,127.58641975308637,0)" xlink:href="#ab"/><use transform="matrix(0.06790123456790122,0,0,0.06790123456790122,135.66666666666663,0)" xlink:href="#ac"/><use transform="matrix(0.06790123456790122,0,0,0.06790123456790122,147.88888888888886,0)" xlink:href="#R"/><use transform="matrix(0.06790123456790122,0,0,0.06790123456790122,153.25308641975306,0)" xlink:href="#Y"/><use transform="matrix(0.06790123456790122,0,0,0.06790123456790122,165.4753086419753,0)" xlink:href="#M"/></g><path fill="#3a414a" d="M106-169C34-169 62-67 57 0H25v-261h32l-1 103c12-21 28-36 61-36 89 0 53 116 60 194h-32v-121c2-32-8-49-39-48" id="ai"/><path fill="#3a414a" d="M240 0l2-218c-23 76-54 145-80 218h-23L58-218 59 0H30v-248h44l77 211c21-75 51-140 76-211h43V0h-30" id="aj"/><path fill="#3a414a" d="M85-194c31 0 48 13 60 33l-1-100h32l1 261h-30c-2-10 0-23-3-31C134-8 116 4 85 4 32 4 16-35 15-94c0-66 23-100 70-100zm9 24c-40 0-46 34-46 75 0 40 6 74 45 74 42 0 51-32 51-76 0-42-9-74-50-73" id="ak"/><path fill="#3a414a" d="M9 0v-24l116-142H16v-24h144v24L44-24h123V0H9" id="al"/><g id="f"><use transform="matrix(0.06790123456790122,0,0,0.06790123456790122,0,0)" xlink:href="#T"/><use transform="matrix(0.06790123456790122,0,0,0.06790123456790122,12.154320987654318,0)" xlink:href="#M"/><use transform="matrix(0.06790123456790122,0,0,0.06790123456790122,25.734567901234563,0)" xlink:href="#ah"/><use transform="matrix(0.06790123456790122,0,0,0.06790123456790122,39.31481481481481,0)" xlink:href="#Y"/><use transform="matrix(0.06790123456790122,0,0,0.06790123456790122,51.53703703703703,0)" xlink:href="#ai"/><use transform="matrix(0.06790123456790122,0,0,0.06790123456790122,65.11728395061728,0)" xlink:href="#M"/><use transform="matrix(0.06790123456790122,0,0,0.06790123456790122,78.6975308641975,0)" xlink:href="#ab"/><use transform="matrix(0.06790123456790122,0,0,0.06790123456790122,86.77777777777776,0)" xlink:href="#aj"/><use transform="matrix(0.06790123456790122,0,0,0.06790123456790122,107.08024691358023,0)" xlink:href="#K"/><use transform="matrix(0.06790123456790122,0,0,0.06790123456790122,120.66049382716047,0)" xlink:href="#ak"/><use transform="matrix(0.06790123456790122,0,0,0.06790123456790122,134.2407407407407,0)" xlink:href="#M"/><use transform="matrix(0.06790123456790122,0,0,0.06790123456790122,147.82098765432096,0)" xlink:href="#N"/><use transform="matrix(0.06790123456790122,0,0,0.06790123456790122,166.83333333333331,0)" xlink:href="#O"/><use transform="matrix(0.06790123456790122,0,0,0.06790123456790122,180.41358024691357,0)" xlink:href="#R"/><use transform="matrix(0.06790123456790122,0,0,0.06790123456790122,185.77777777777777,0)" xlink:href="#al"/></g><g id="g"><use transform="matrix(0.06790123456790122,0,0,0.06790123456790122,0,0)" xlink:href="#aa"/><use transform="matrix(0.06790123456790122,0,0,0.06790123456790122,16.29629629629629,0)" xlink:href="#Q"/><use transform="matrix(0.06790123456790122,0,0,0.06790123456790122,23.08641975308641,0)" xlink:href="#O"/><use transform="matrix(0.06790123456790122,0,0,0.06790123456790122,36.66666666666666,0)" xlink:href="#ak"/><use transform="matrix(0.06790123456790122,0,0,0.06790123456790122,50.246913580246904,0)" xlink:href="#M"/><use transform="matrix(0.06790123456790122,0,0,0.06790123456790122,63.82716049382714,0)" xlink:href="#S"/><use transform="matrix(0.06790123456790122,0,0,0.06790123456790122,77.40740740740738,0)" xlink:href="#Q"/><use transform="matrix(0.06790123456790122,0,0,0.06790123456790122,84.1975308641975,0)" xlink:href="#aj"/><use transform="matrix(0.06790123456790122,0,0,0.06790123456790122,104.49999999999997,0)" xlink:href="#K"/><use transform="matrix(0.06790123456790122,0,0,0.06790123456790122,118.08024691358021,0)" xlink:href="#ak"/><use transform="matrix(0.06790123456790122,0,0,0.06790123456790122,131.66049382716045,0)" xlink:href="#M"/><use transform="matrix(0.06790123456790122,0,0,0.06790123456790122,145.2407407407407,0)" xlink:href="#N"/><use transform="matrix(0.06790123456790122,0,0,0.06790123456790122,164.25308641975306,0)" xlink:href="#O"/><use transform="matrix(0.06790123456790122,0,0,0.06790123456790122,177.83333333333331,0)" xlink:href="#R"/><use transform="matrix(0.06790123456790122,0,0,0.06790123456790122,183.19753086419752,0)" xlink:href="#al"/></g><path fill="#3a414a" d="M153-248C145-148 188 4 80 4 36 3 13-21 6-62l32-5c4 25 16 42 43 43 27 0 39-20 39-49v-147H72v-28h81" id="am"/><path fill="#3a414a" d="M233-177c-1 41-23 64-60 70L243 0h-38l-65-103H63V0H30v-248c88 3 205-21 203 71zM63-129c60-2 137 13 137-47 0-61-80-42-137-45v92" id="an"/><g id="h"><use transform="matrix(0.06790123456790122,0,0,0.06790123456790122,0,0)" xlink:href="#am"/><use transform="matrix(0.06790123456790122,0,0,0.06790123456790122,12.22222222222222,0)" xlink:href="#K"/><use transform="matrix(0.06790123456790122,0,0,0.06790123456790122,25.80246913580246,0)" xlink:href="#R"/><use transform="matrix(0.06790123456790122,0,0,0.06790123456790122,31.166666666666657,0)" xlink:href="#S"/><use transform="matrix(0.06790123456790122,0,0,0.06790123456790122,44.7469135802469,0)" xlink:href="#an"/><use transform="matrix(0.06790123456790122,0,0,0.06790123456790122,62.333333333333314,0)" xlink:href="#K"/><use transform="matrix(0.06790123456790122,0,0,0.06790123456790122,75.91358024691355,0)" xlink:href="#K"/><use transform="matrix(0.06790123456790122,0,0,0.06790123456790122,89.4938271604938,0)" xlink:href="#L"/></g><path fill="#3a414a" d="M177-190C167-65 218 103 67 71c-23-6-38-20-44-43l32-5c15 47 100 32 89-28v-30C133-14 115 1 83 1 29 1 15-40 15-95c0-56 16-97 71-98 29-1 48 16 59 35 1-10 0-23 2-32h30zM94-22c36 0 50-32 50-73 0-42-14-75-50-75-39 0-46 34-46 75s6 73 46 73" id="ao"/><g id="i"><use transform="matrix(0.06790123456790122,0,0,0.06790123456790122,0,0)" xlink:href="#aj"/><use transform="matrix(0.06790123456790122,0,0,0.06790123456790122,20.302469135802465,0)" xlink:href="#ah"/><use transform="matrix(0.06790123456790122,0,0,0.06790123456790122,33.88271604938271,0)" xlink:href="#S"/><use transform="matrix(0.06790123456790122,0,0,0.06790123456790122,47.46296296296295,0)" xlink:href="#ah"/><use transform="matrix(0.06790123456790122,0,0,0.06790123456790122,61.04320987654319,0)" xlink:href="#ao"/><use transform="matrix(0.06790123456790122,0,0,0.06790123456790122,74.62345679012343,0)" xlink:href="#M"/><use transform="matrix(0.06790123456790122,0,0,0.06790123456790122,88.20370370370367,0)" xlink:href="#an"/><use transform="matrix(0.06790123456790122,0,0,0.06790123456790122,105.79012345679008,0)" xlink:href="#K"/><use transform="matrix(0.06790123456790122,0,0,0.06790123456790122,119.37037037037032,0)" xlink:href="#K"/><use transform="matrix(0.06790123456790122,0,0,0.06790123456790122,132.95061728395058,0)" xlink:href="#L"/></g><path fill="#3a414a" d="M205 0l-28-72H64L36 0H1l101-248h38L239 0h-34zm-38-99l-47-123c-12 45-31 82-46 123h93" id="ap"/><path fill="#3a414a" d="M206 0h-36l-40-164L89 0H53L-1-190h32L70-26l43-164h34l41 164 42-164h31" id="aq"/><g id="j"><use transform="matrix(0.06790123456790122,0,0,0.06790123456790122,0,0)" xlink:href="#aa"/><use transform="matrix(0.06790123456790122,0,0,0.06790123456790122,16.29629629629629,0)" xlink:href="#ai"/><use transform="matrix(0.06790123456790122,0,0,0.06790123456790122,29.876543209876534,0)" xlink:href="#K"/><use transform="matrix(0.06790123456790122,0,0,0.06790123456790122,43.45679012345678,0)" xlink:href="#ab"/><use transform="matrix(0.06790123456790122,0,0,0.06790123456790122,51.537037037037024,0)" xlink:href="#Q"/><use transform="matrix(0.06790123456790122,0,0,0.06790123456790122,58.327160493827144,0)" xlink:href="#ap"/><use transform="matrix(0.06790123456790122,0,0,0.06790123456790122,74.62345679012344,0)" xlink:href="#S"/><use transform="matrix(0.06790123456790122,0,0,0.06790123456790122,88.20370370370368,0)" xlink:href="#P"/><use transform="matrix(0.06790123456790122,0,0,0.06790123456790122,100.4259259259259,0)" xlink:href="#aq"/><use transform="matrix(0.06790123456790122,0,0,0.06790123456790122,118.01234567901231,0)" xlink:href="#M"/><use transform="matrix(0.06790123456790122,0,0,0.06790123456790122,131.59259259259255,0)" xlink:href="#ab"/><use transform="matrix(0.06790123456790122,0,0,0.06790123456790122,139.6728395061728,0)" xlink:href="#N"/><use transform="matrix(0.06790123456790122,0,0,0.06790123456790122,158.68518518518516,0)" xlink:href="#O"/><use transform="matrix(0.06790123456790122,0,0,0.06790123456790122,172.26543209876542,0)" xlink:href="#M"/><use transform="matrix(0.06790123456790122,0,0,0.06790123456790122,185.84567901234567,0)" xlink:href="#P"/><use transform="matrix(0.06790123456790122,0,0,0.06790123456790122,198.0679012345679,0)" xlink:href="#Q"/><use transform="matrix(0.06790123456790122,0,0,0.06790123456790122,204.85802469135803,0)" xlink:href="#R"/><use transform="matrix(0.06790123456790122,0,0,0.06790123456790122,210.22222222222223,0)" xlink:href="#K"/><use transform="matrix(0.06790123456790122,0,0,0.06790123456790122,223.80246913580248,0)" xlink:href="#S"/></g><path fill="#3a414a" d="M190 0L58-211 59 0H30v-248h39L202-35l-2-213h31V0h-41" id="ar"/><g id="k"><use transform="matrix(0.06790123456790122,0,0,0.06790123456790122,0,0)" xlink:href="#ar"/><use transform="matrix(0.06790123456790122,0,0,0.06790123456790122,17.586419753086414,0)" xlink:href="#O"/><use transform="matrix(0.06790123456790122,0,0,0.06790123456790122,31.166666666666657,0)" xlink:href="#L"/><use transform="matrix(0.06790123456790122,0,0,0.06790123456790122,51.469135802469125,0)" xlink:href="#M"/><use transform="matrix(0.06790123456790122,0,0,0.06790123456790122,65.04938271604937,0)" xlink:href="#ab"/><use transform="matrix(0.06790123456790122,0,0,0.06790123456790122,73.1296296296296,0)" xlink:href="#R"/><use transform="matrix(0.06790123456790122,0,0,0.06790123456790122,78.4938271604938,0)" xlink:href="#Y"/><use transform="matrix(0.06790123456790122,0,0,0.06790123456790122,90.71604938271601,0)" xlink:href="#ah"/><use transform="matrix(0.06790123456790122,0,0,0.06790123456790122,104.29629629629625,0)" xlink:href="#ag"/><use transform="matrix(0.06790123456790122,0,0,0.06790123456790122,109.66049382716045,0)" xlink:href="#N"/><use transform="matrix(0.06790123456790122,0,0,0.06790123456790122,128.6728395061728,0)" xlink:href="#O"/><use transform="matrix(0.06790123456790122,0,0,0.06790123456790122,142.25308641975306,0)" xlink:href="#M"/><use transform="matrix(0.06790123456790122,0,0,0.06790123456790122,155.83333333333331,0)" xlink:href="#P"/><use transform="matrix(0.06790123456790122,0,0,0.06790123456790122,168.05555555555554,0)" xlink:href="#Q"/><use transform="matrix(0.06790123456790122,0,0,0.06790123456790122,174.84567901234567,0)" xlink:href="#R"/><use transform="matrix(0.06790123456790122,0,0,0.06790123456790122,180.20987654320987,0)" xlink:href="#K"/><use transform="matrix(0.06790123456790122,0,0,0.06790123456790122,193.79012345679013,0)" xlink:href="#S"/></g><path fill="#3a414a" d="M30 0v-248h187v28H63v79h144v27H63v87h162V0H30" id="as"/><g id="l"><use transform="matrix(0.06790123456790122,0,0,0.06790123456790122,0,0)" xlink:href="#as"/><use transform="matrix(0.06790123456790122,0,0,0.06790123456790122,16.29629629629629,0)" xlink:href="#ak"/><use transform="matrix(0.06790123456790122,0,0,0.06790123456790122,29.876543209876534,0)" xlink:href="#R"/><use transform="matrix(0.06790123456790122,0,0,0.06790123456790122,35.24074074074073,0)" xlink:href="#Q"/><use transform="matrix(0.06790123456790122,0,0,0.06790123456790122,42.03086419753085,0)" xlink:href="#K"/><use transform="matrix(0.06790123456790122,0,0,0.06790123456790122,55.6111111111111,0)" xlink:href="#ab"/><use transform="matrix(0.06790123456790122,0,0,0.06790123456790122,63.69135802469135,0)" xlink:href="#N"/><use transform="matrix(0.06790123456790122,0,0,0.06790123456790122,82.7037037037037,0)" xlink:href="#O"/><use transform="matrix(0.06790123456790122,0,0,0.06790123456790122,96.28395061728394,0)" xlink:href="#R"/><use transform="matrix(0.06790123456790122,0,0,0.06790123456790122,101.64814814814812,0)" xlink:href="#al"/></g><path fill="#3a414a" d="M212-179c-10-28-35-45-73-45-59 0-87 40-87 99 0 60 29 101 89 101 43 0 62-24 78-52l27 14C228-24 195 4 139 4 59 4 22-46 18-125c-6-104 99-153 187-111 19 9 31 26 39 46" id="at"/><g id="m"><use transform="matrix(0.06790123456790122,0,0,0.06790123456790122,0,0)" xlink:href="#aj"/><use transform="matrix(0.06790123456790122,0,0,0.06790123456790122,20.302469135802465,0)" xlink:href="#O"/><use transform="matrix(0.06790123456790122,0,0,0.06790123456790122,33.88271604938271,0)" xlink:href="#ag"/><use transform="matrix(0.06790123456790122,0,0,0.06790123456790122,39.246913580246904,0)" xlink:href="#Q"/><use transform="matrix(0.06790123456790122,0,0,0.06790123456790122,46.037037037037024,0)" xlink:href="#R"/><use transform="matrix(0.06790123456790122,0,0,0.06790123456790122,51.40123456790122,0)" xlink:href="#V"/><use transform="matrix(0.06790123456790122,0,0,0.06790123456790122,64.98148148148147,0)" xlink:href="#ag"/><use transform="matrix(0.06790123456790122,0,0,0.06790123456790122,70.34567901234567,0)" xlink:href="#M"/><use transform="matrix(0.06790123456790122,0,0,0.06790123456790122,83.92592592592591,0)" xlink:href="#at"/><use transform="matrix(0.06790123456790122,0,0,0.06790123456790122,101.51234567901234,0)" xlink:href="#ai"/><use transform="matrix(0.06790123456790122,0,0,0.06790123456790122,115.09259259259257,0)" xlink:href="#K"/><use transform="matrix(0.06790123456790122,0,0,0.06790123456790122,128.6728395061728,0)" xlink:href="#R"/><use transform="matrix(0.06790123456790122,0,0,0.06790123456790122,134.037037037037,0)" xlink:href="#Y"/><use transform="matrix(0.06790123456790122,0,0,0.06790123456790122,146.25925925925924,0)" xlink:href="#M"/><use transform="matrix(0.06790123456790122,0,0,0.06790123456790122,159.8395061728395,0)" xlink:href="#N"/><use transform="matrix(0.06790123456790122,0,0,0.06790123456790122,178.85185185185185,0)" xlink:href="#O"/><use transform="matrix(0.06790123456790122,0,0,0.06790123456790122,192.4320987654321,0)" xlink:href="#M"/><use transform="matrix(0.06790123456790122,0,0,0.06790123456790122,206.01234567901236,0)" xlink:href="#P"/><use transform="matrix(0.06790123456790122,0,0,0.06790123456790122,218.23456790123458,0)" xlink:href="#Q"/><use transform="matrix(0.06790123456790122,0,0,0.06790123456790122,225.02469135802474,0)" xlink:href="#R"/><use transform="matrix(0.06790123456790122,0,0,0.06790123456790122,230.3888888888889,0)" xlink:href="#K"/><use transform="matrix(0.06790123456790122,0,0,0.06790123456790122,243.96913580246917,0)" xlink:href="#S"/></g><g id="n"><use transform="matrix(0.06790123456790122,0,0,0.06790123456790122,0,0)" xlink:href="#N"/><use transform="matrix(0.06790123456790122,0,0,0.06790123456790122,19.01234567901234,0)" xlink:href="#O"/><use transform="matrix(0.06790123456790122,0,0,0.06790123456790122,32.59259259259258,0)" xlink:href="#M"/><use transform="matrix(0.06790123456790122,0,0,0.06790123456790122,46.17283950617282,0)" xlink:href="#P"/><use transform="matrix(0.06790123456790122,0,0,0.06790123456790122,58.39506172839504,0)" xlink:href="#Q"/><use transform="matrix(0.06790123456790122,0,0,0.06790123456790122,65.18518518518516,0)" xlink:href="#R"/><use transform="matrix(0.06790123456790122,0,0,0.06790123456790122,70.54938271604937,0)" xlink:href="#K"/><use transform="matrix(0.06790123456790122,0,0,0.06790123456790122,84.1296296296296,0)" xlink:href="#S"/></g><g id="o"><use transform="matrix(0.06790123456790122,0,0,0.06790123456790122,0,0)" xlink:href="#ae"/><use transform="matrix(0.06790123456790122,0,0,0.06790123456790122,6.790123456790122,0)" xlink:href="#L"/><use transform="matrix(0.06790123456790122,0,0,0.06790123456790122,27.092592592592588,0)" xlink:href="#V"/><use transform="matrix(0.06790123456790122,0,0,0.06790123456790122,40.672839506172835,0)" xlink:href="#K"/><use transform="matrix(0.06790123456790122,0,0,0.06790123456790122,54.253086419753075,0)" xlink:href="#ab"/><use transform="matrix(0.06790123456790122,0,0,0.06790123456790122,62.33333333333332,0)" xlink:href="#Q"/><use transform="matrix(0.06790123456790122,0,0,0.06790123456790122,69.12345679012344,0)" xlink:href="#aj"/><use transform="matrix(0.06790123456790122,0,0,0.06790123456790122,89.42592592592591,0)" xlink:href="#K"/><use transform="matrix(0.06790123456790122,0,0,0.06790123456790122,103.00617283950615,0)" xlink:href="#ak"/><use transform="matrix(0.06790123456790122,0,0,0.06790123456790122,116.58641975308639,0)" xlink:href="#ah"/><use transform="matrix(0.06790123456790122,0,0,0.06790123456790122,130.16666666666663,0)" xlink:href="#ag"/></g><g id="p"><use transform="matrix(0.06790123456790122,0,0,0.06790123456790122,0,0)" xlink:href="#N"/><use transform="matrix(0.06790123456790122,0,0,0.06790123456790122,19.01234567901234,0)" xlink:href="#O"/><use transform="matrix(0.06790123456790122,0,0,0.06790123456790122,32.59259259259258,0)" xlink:href="#R"/><use transform="matrix(0.06790123456790122,0,0,0.06790123456790122,37.95679012345678,0)" xlink:href="#al"/><use transform="matrix(0.06790123456790122,0,0,0.06790123456790122,50.179012345679,0)" xlink:href="#T"/><use transform="matrix(0.06790123456790122,0,0,0.06790123456790122,63.69135802469134,0)" xlink:href="#U"/><use transform="matrix(0.06790123456790122,0,0,0.06790123456790122,75.91358024691355,0)" xlink:href="#V"/><use transform="matrix(0.06790123456790122,0,0,0.06790123456790122,89.4938271604938,0)" xlink:href="#M"/></g><g id="q"><use transform="matrix(0.06790123456790122,0,0,0.06790123456790122,0,0)" xlink:href="#ak"/><use transform="matrix(0.06790123456790122,0,0,0.06790123456790122,13.580246913580243,0)" xlink:href="#ah"/><use transform="matrix(0.06790123456790122,0,0,0.06790123456790122,27.160493827160487,0)" xlink:href="#P"/><use transform="matrix(0.06790123456790122,0,0,0.06790123456790122,39.38271604938271,0)" xlink:href="#ai"/><use transform="matrix(0.06790123456790122,0,0,0.06790123456790122,52.96296296296295,0)" xlink:href="#X"/><use transform="matrix(0.06790123456790122,0,0,0.06790123456790122,66.54320987654319,0)" xlink:href="#K"/><use transform="matrix(0.06790123456790122,0,0,0.06790123456790122,80.12345679012343,0)" xlink:href="#ah"/><use transform="matrix(0.06790123456790122,0,0,0.06790123456790122,93.70370370370367,0)" xlink:href="#ab"/><use transform="matrix(0.06790123456790122,0,0,0.06790123456790122,101.7839506172839,0)" xlink:href="#ak"/></g><path fill="#3a414a" d="M101-234c-31-9-42 10-38 44h38v23H63V0H32v-167H5v-23h27c-7-52 17-82 69-68v24" id="au"/><path fill="#3a414a" d="M30-248c118-7 216 8 213 122C240-48 200 0 122 0H30v-248zM63-27c89 8 146-16 146-99s-60-101-146-95v194" id="av"/><g id="r"><use transform="matrix(0.06790123456790122,0,0,0.06790123456790122,0,0)" xlink:href="#at"/><use transform="matrix(0.06790123456790122,0,0,0.06790123456790122,17.586419753086414,0)" xlink:href="#K"/><use transform="matrix(0.06790123456790122,0,0,0.06790123456790122,31.166666666666657,0)" xlink:href="#S"/><use transform="matrix(0.06790123456790122,0,0,0.06790123456790122,44.7469135802469,0)" xlink:href="#au"/><use transform="matrix(0.06790123456790122,0,0,0.06790123456790122,51.53703703703702,0)" xlink:href="#R"/><use transform="matrix(0.06790123456790122,0,0,0.06790123456790122,56.90123456790121,0)" xlink:href="#ab"/><use transform="matrix(0.06790123456790122,0,0,0.06790123456790122,64.98148148148145,0)" xlink:href="#L"/><use transform="matrix(0.06790123456790122,0,0,0.06790123456790122,85.28395061728394,0)" xlink:href="#av"/><use transform="matrix(0.06790123456790122,0,0,0.06790123456790122,102.87037037037034,0)" xlink:href="#R"/><use transform="matrix(0.06790123456790122,0,0,0.06790123456790122,108.23456790123453,0)" xlink:href="#ah"/><use transform="matrix(0.06790123456790122,0,0,0.06790123456790122,121.81481481481477,0)" xlink:href="#ag"/><use transform="matrix(0.06790123456790122,0,0,0.06790123456790122,127.17901234567894,0)" xlink:href="#K"/><use transform="matrix(0.06790123456790122,0,0,0.06790123456790122,140.7592592592592,0)" xlink:href="#ao"/></g><path fill="#3a414a" d="M30 0v-248h33v221h125V0H30" id="aw"/><g id="s"><use transform="matrix(0.06790123456790122,0,0,0.06790123456790122,0,0)" xlink:href="#aw"/><use transform="matrix(0.06790123456790122,0,0,0.06790123456790122,13.580246913580243,0)" xlink:href="#K"/><use transform="matrix(0.06790123456790122,0,0,0.06790123456790122,27.160493827160487,0)" xlink:href="#ah"/><use transform="matrix(0.06790123456790122,0,0,0.06790123456790122,40.74074074074073,0)" xlink:href="#ak"/><use transform="matrix(0.06790123456790122,0,0,0.06790123456790122,54.32098765432097,0)" xlink:href="#R"/><use transform="matrix(0.06790123456790122,0,0,0.06790123456790122,59.68518518518517,0)" xlink:href="#S"/><use transform="matrix(0.06790123456790122,0,0,0.06790123456790122,73.26543209876542,0)" xlink:href="#ao"/><use transform="matrix(0.06790123456790122,0,0,0.06790123456790122,86.84567901234566,0)" xlink:href="#at"/><use transform="matrix(0.06790123456790122,0,0,0.06790123456790122,104.43209876543207,0)" xlink:href="#R"/><use transform="matrix(0.06790123456790122,0,0,0.06790123456790122,109.79629629629628,0)" xlink:href="#ab"/><use transform="matrix(0.06790123456790122,0,0,0.06790123456790122,117.87654320987652,0)" xlink:href="#Y"/><use transform="matrix(0.06790123456790122,0,0,0.06790123456790122,130.09876543209873,0)" xlink:href="#ag"/><use transform="matrix(0.06790123456790122,0,0,0.06790123456790122,135.46296296296293,0)" xlink:href="#M"/></g><path fill="#3a414a" d="M232-93c-1 65-40 97-104 97C67 4 28-28 28-90v-158h33c8 89-33 224 67 224 102 0 64-133 71-224h33v155" id="ax"/><path fill="#3a414a" d="M30-248c87 1 191-15 191 75 0 78-77 80-158 76V0H30v-248zm33 125c57 0 124 11 124-50 0-59-68-47-124-48v98" id="ay"/><g id="t"><use transform="matrix(0.06790123456790122,0,0,0.06790123456790122,0,0)" xlink:href="#ax"/><use transform="matrix(0.06790123456790122,0,0,0.06790123456790122,17.586419753086414,0)" xlink:href="#P"/><use transform="matrix(0.06790123456790122,0,0,0.06790123456790122,29.808641975308632,0)" xlink:href="#M"/><use transform="matrix(0.06790123456790122,0,0,0.06790123456790122,43.38888888888887,0)" xlink:href="#ab"/><use transform="matrix(0.06790123456790122,0,0,0.06790123456790122,51.46913580246911,0)" xlink:href="#W"/><use transform="matrix(0.06790123456790122,0,0,0.06790123456790122,73.60493827160491,0)" xlink:href="#ah"/><use transform="matrix(0.06790123456790122,0,0,0.06790123456790122,87.18518518518515,0)" xlink:href="#R"/><use transform="matrix(0.06790123456790122,0,0,0.06790123456790122,92.54938271604934,0)" xlink:href="#Q"/><use transform="matrix(0.06790123456790122,0,0,0.06790123456790122,99.33950617283946,0)" xlink:href="#ay"/><use transform="matrix(0.06790123456790122,0,0,0.06790123456790122,115.63580246913575,0)" xlink:href="#ah"/><use transform="matrix(0.06790123456790122,0,0,0.06790123456790122,129.216049382716,0)" xlink:href="#ao"/><use transform="matrix(0.06790123456790122,0,0,0.06790123456790122,142.79629629629625,0)" xlink:href="#M"/></g><g id="u"><use transform="matrix(0.06790123456790122,0,0,0.06790123456790122,0,0)" xlink:href="#N"/><use transform="matrix(0.06790123456790122,0,0,0.06790123456790122,19.01234567901234,0)" xlink:href="#O"/><use transform="matrix(0.06790123456790122,0,0,0.06790123456790122,32.59259259259258,0)" xlink:href="#R"/><use transform="matrix(0.06790123456790122,0,0,0.06790123456790122,37.95679012345678,0)" xlink:href="#al"/><use transform="matrix(0.06790123456790122,0,0,0.06790123456790122,50.179012345679,0)" xlink:href="#aa"/><use transform="matrix(0.06790123456790122,0,0,0.06790123456790122,66.47530864197529,0)" xlink:href="#M"/><use transform="matrix(0.06790123456790122,0,0,0.06790123456790122,80.05555555555553,0)" xlink:href="#ab"/><use transform="matrix(0.06790123456790122,0,0,0.06790123456790122,88.13580246913577,0)" xlink:href="#ac"/><use transform="matrix(0.06790123456790122,0,0,0.06790123456790122,100.35802469135798,0)" xlink:href="#R"/><use transform="matrix(0.06790123456790122,0,0,0.06790123456790122,105.72222222222219,0)" xlink:href="#Y"/><use transform="matrix(0.06790123456790122,0,0,0.06790123456790122,117.94444444444439,0)" xlink:href="#M"/></g><g id="v"><use transform="matrix(0.06790123456790122,0,0,0.06790123456790122,0,0)" xlink:href="#ad"/><use transform="matrix(0.06790123456790122,0,0,0.06790123456790122,19.01234567901234,0)" xlink:href="#ae"/><use transform="matrix(0.06790123456790122,0,0,0.06790123456790122,25.80246913580246,0)" xlink:href="#af"/><use transform="matrix(0.06790123456790122,0,0,0.06790123456790122,40.67283950617283,0)" xlink:href="#T"/><use transform="matrix(0.06790123456790122,0,0,0.06790123456790122,55.543209876543195,0)" xlink:href="#T"/><use transform="matrix(0.06790123456790122,0,0,0.06790123456790122,67.69753086419752,0)" xlink:href="#M"/><use transform="matrix(0.06790123456790122,0,0,0.06790123456790122,81.27777777777776,0)" xlink:href="#L"/><use transform="matrix(0.06790123456790122,0,0,0.06790123456790122,101.58024691358023,0)" xlink:href="#V"/><use transform="matrix(0.06790123456790122,0,0,0.06790123456790122,115.16049382716047,0)" xlink:href="#ag"/><use transform="matrix(0.06790123456790122,0,0,0.06790123456790122,120.52469135802465,0)" xlink:href="#ah"/><use transform="matrix(0.06790123456790122,0,0,0.06790123456790122,134.1049382716049,0)" xlink:href="#Q"/><use transform="matrix(0.06790123456790122,0,0,0.06790123456790122,140.89506172839504,0)" xlink:href="#M"/><use transform="matrix(0.06790123456790122,0,0,0.06790123456790122,154.4753086419753,0)" xlink:href="#ay"/><use transform="matrix(0.06790123456790122,0,0,0.06790123456790122,170.7716049382716,0)" xlink:href="#ab"/><use transform="matrix(0.06790123456790122,0,0,0.06790123456790122,178.85185185185185,0)" xlink:href="#M"/><use transform="matrix(0.06790123456790122,0,0,0.06790123456790122,192.4320987654321,0)" xlink:href="#ac"/><use transform="matrix(0.06790123456790122,0,0,0.06790123456790122,204.65432098765433,0)" xlink:href="#R"/><use transform="matrix(0.06790123456790122,0,0,0.06790123456790122,210.01851851851853,0)" xlink:href="#M"/><use transform="matrix(0.06790123456790122,0,0,0.06790123456790122,223.5987654320988,0)" xlink:href="#aq"/></g><g id="w"><use transform="matrix(0.06790123456790122,0,0,0.06790123456790122,0,0)" xlink:href="#aw"/><use transform="matrix(0.06790123456790122,0,0,0.06790123456790122,13.580246913580243,0)" xlink:href="#ah"/><use transform="matrix(0.06790123456790122,0,0,0.06790123456790122,27.160493827160487,0)" xlink:href="#O"/><use transform="matrix(0.06790123456790122,0,0,0.06790123456790122,40.74074074074073,0)" xlink:href="#S"/><use transform="matrix(0.06790123456790122,0,0,0.06790123456790122,54.32098765432097,0)" xlink:href="#Y"/><use transform="matrix(0.06790123456790122,0,0,0.06790123456790122,66.54320987654319,0)" xlink:href="#ai"/><use transform="matrix(0.06790123456790122,0,0,0.06790123456790122,80.12345679012343,0)" xlink:href="#N"/><use transform="matrix(0.06790123456790122,0,0,0.06790123456790122,99.13580246913575,0)" xlink:href="#O"/><use transform="matrix(0.06790123456790122,0,0,0.06790123456790122,112.71604938271601,0)" xlink:href="#R"/><use transform="matrix(0.06790123456790122,0,0,0.06790123456790122,118.0802469135802,0)" xlink:href="#al"/><use transform="matrix(0.06790123456790122,0,0,0.06790123456790122,130.30246913580243,0)" xlink:href="#av"/><use transform="matrix(0.06790123456790122,0,0,0.06790123456790122,147.88888888888883,0)" xlink:href="#R"/><use transform="matrix(0.06790123456790122,0,0,0.06790123456790122,153.25308641975306,0)" xlink:href="#ah"/><use transform="matrix(0.06790123456790122,0,0,0.06790123456790122,166.8333333333333,0)" xlink:href="#ag"/><use transform="matrix(0.06790123456790122,0,0,0.06790123456790122,172.1975308641975,0)" xlink:href="#K"/><use transform="matrix(0.06790123456790122,0,0,0.06790123456790122,185.77777777777774,0)" xlink:href="#ao"/></g><g id="x"><use transform="matrix(0.06790123456790122,0,0,0.06790123456790122,0,0)" xlink:href="#T"/><use transform="matrix(0.06790123456790122,0,0,0.06790123456790122,13.98765432098765,0)" xlink:href="#ab"/><use transform="matrix(0.06790123456790122,0,0,0.06790123456790122,22.0679012345679,0)" xlink:href="#O"/><use transform="matrix(0.06790123456790122,0,0,0.06790123456790122,35.64814814814814,0)" xlink:href="#M"/><use transform="matrix(0.06790123456790122,0,0,0.06790123456790122,49.22839506172838,0)" xlink:href="#af"/><use transform="matrix(0.06790123456790122,0,0,0.06790123456790122,64.09876543209874,0)" xlink:href="#ah"/><use transform="matrix(0.06790123456790122,0,0,0.06790123456790122,77.67901234567897,0)" xlink:href="#ag"/><use transform="matrix(0.06790123456790122,0,0,0.06790123456790122,83.04320987654319,0)" xlink:href="#P"/><use transform="matrix(0.06790123456790122,0,0,0.06790123456790122,95.2654320987654,0)" xlink:href="#M"/><use transform="matrix(0.06790123456790122,0,0,0.06790123456790122,108.84567901234564,0)" xlink:href="#N"/><use transform="matrix(0.06790123456790122,0,0,0.06790123456790122,127.85802469135798,0)" xlink:href="#O"/><use transform="matrix(0.06790123456790122,0,0,0.06790123456790122,141.43827160493822,0)" xlink:href="#M"/><use transform="matrix(0.06790123456790122,0,0,0.06790123456790122,155.01851851851848,0)" xlink:href="#P"/><use transform="matrix(0.06790123456790122,0,0,0.06790123456790122,167.2407407407407,0)" xlink:href="#Q"/><use transform="matrix(0.06790123456790122,0,0,0.06790123456790122,174.03086419753083,0)" xlink:href="#R"/><use transform="matrix(0.06790123456790122,0,0,0.06790123456790122,179.39506172839504,0)" xlink:href="#K"/><use transform="matrix(0.06790123456790122,0,0,0.06790123456790122,192.9753086419753,0)" xlink:href="#S"/></g><g id="y"><use transform="matrix(0.06790123456790122,0,0,0.06790123456790122,0,0)" xlink:href="#ax"/><use transform="matrix(0.06790123456790122,0,0,0.06790123456790122,17.586419753086414,0)" xlink:href="#P"/><use transform="matrix(0.06790123456790122,0,0,0.06790123456790122,29.808641975308632,0)" xlink:href="#M"/><use transform="matrix(0.06790123456790122,0,0,0.06790123456790122,43.38888888888887,0)" xlink:href="#ab"/><use transform="matrix(0.06790123456790122,0,0,0.06790123456790122,51.46913580246911,0)" xlink:href="#T"/><use transform="matrix(0.06790123456790122,0,0,0.06790123456790122,64.98148148148147,0)" xlink:href="#U"/><use transform="matrix(0.06790123456790122,0,0,0.06790123456790122,77.20370370370368,0)" xlink:href="#V"/><use transform="matrix(0.06790123456790122,0,0,0.06790123456790122,90.78395061728392,0)" xlink:href="#M"/></g><g id="z"><use transform="matrix(0.06790123456790122,0,0,0.06790123456790122,0,0)" xlink:href="#aw"/><use transform="matrix(0.06790123456790122,0,0,0.06790123456790122,13.580246913580243,0)" xlink:href="#R"/><use transform="matrix(0.06790123456790122,0,0,0.06790123456790122,18.94444444444444,0)" xlink:href="#ac"/><use transform="matrix(0.06790123456790122,0,0,0.06790123456790122,31.166666666666657,0)" xlink:href="#M"/><use transform="matrix(0.06790123456790122,0,0,0.06790123456790122,44.7469135802469,0)" xlink:href="#an"/><use transform="matrix(0.06790123456790122,0,0,0.06790123456790122,62.333333333333314,0)" xlink:href="#M"/><use transform="matrix(0.06790123456790122,0,0,0.06790123456790122,75.91358024691355,0)" xlink:href="#P"/><use transform="matrix(0.06790123456790122,0,0,0.06790123456790122,88.13580246913577,0)" xlink:href="#O"/><use transform="matrix(0.06790123456790122,0,0,0.06790123456790122,101.71604938271601,0)" xlink:href="#ag"/><use transform="matrix(0.06790123456790122,0,0,0.06790123456790122,107.0802469135802,0)" xlink:href="#Q"/><use transform="matrix(0.06790123456790122,0,0,0.06790123456790122,113.87037037037032,0)" xlink:href="#P"/></g><g id="A"><use transform="matrix(0.06790123456790122,0,0,0.06790123456790122,0,0)" xlink:href="#ad"/><use transform="matrix(0.06790123456790122,0,0,0.06790123456790122,19.01234567901234,0)" xlink:href="#R"/><use transform="matrix(0.06790123456790122,0,0,0.06790123456790122,24.376543209876537,0)" xlink:href="#au"/><use transform="matrix(0.06790123456790122,0,0,0.06790123456790122,31.166666666666657,0)" xlink:href="#Q"/><use transform="matrix(0.06790123456790122,0,0,0.06790123456790122,37.95679012345678,0)" xlink:href="#at"/><use transform="matrix(0.06790123456790122,0,0,0.06790123456790122,55.54320987654319,0)" xlink:href="#ai"/><use transform="matrix(0.06790123456790122,0,0,0.06790123456790122,69.12345679012343,0)" xlink:href="#M"/><use transform="matrix(0.06790123456790122,0,0,0.06790123456790122,82.70370370370367,0)" xlink:href="#ah"/><use transform="matrix(0.06790123456790122,0,0,0.06790123456790122,96.2839506172839,0)" xlink:href="#Q"/><use transform="matrix(0.06790123456790122,0,0,0.06790123456790122,103.07407407407403,0)" xlink:href="#aa"/><use transform="matrix(0.06790123456790122,0,0,0.06790123456790122,119.37037037037032,0)" xlink:href="#ai"/><use transform="matrix(0.06790123456790122,0,0,0.06790123456790122,132.95061728395058,0)" xlink:href="#M"/><use transform="matrix(0.06790123456790122,0,0,0.06790123456790122,146.53086419753083,0)" xlink:href="#M"/><use transform="matrix(0.06790123456790122,0,0,0.06790123456790122,160.11111111111111,0)" xlink:href="#Q"/></g><path fill="#3a414a" d="M160-131c35 5 61 23 61 61C221 17 115-2 30 0v-248c76 3 177-17 177 60 0 33-19 50-47 57zm-97-11c50-1 110 9 110-42 0-47-63-36-110-37v79zm0 115c55-2 124 14 124-45 0-56-70-42-124-44v89" id="az"/><g id="B"><use transform="matrix(0.06790123456790122,0,0,0.06790123456790122,0,0)" xlink:href="#an"/><use transform="matrix(0.06790123456790122,0,0,0.06790123456790122,17.586419753086414,0)" xlink:href="#M"/><use transform="matrix(0.06790123456790122,0,0,0.06790123456790122,31.166666666666657,0)" xlink:href="#Q"/><use transform="matrix(0.06790123456790122,0,0,0.06790123456790122,37.95679012345678,0)" xlink:href="#O"/><use transform="matrix(0.06790123456790122,0,0,0.06790123456790122,51.537037037037024,0)" xlink:href="#ab"/><use transform="matrix(0.06790123456790122,0,0,0.06790123456790122,59.61728395061727,0)" xlink:href="#S"/><use transform="matrix(0.06790123456790122,0,0,0.06790123456790122,73.19753086419752,0)" xlink:href="#az"/><use transform="matrix(0.06790123456790122,0,0,0.06790123456790122,89.49382716049381,0)" xlink:href="#O"/><use transform="matrix(0.06790123456790122,0,0,0.06790123456790122,103.07407407407405,0)" xlink:href="#Q"/><use transform="matrix(0.06790123456790122,0,0,0.06790123456790122,109.86419753086417,0)" xlink:href="#Q"/><use transform="matrix(0.06790123456790122,0,0,0.06790123456790122,116.6543209876543,0)" xlink:href="#K"/><use transform="matrix(0.06790123456790122,0,0,0.06790123456790122,130.23456790123456,0)" xlink:href="#S"/></g><g id="C"><use transform="matrix(0.06790123456790122,0,0,0.06790123456790122,0,0)" xlink:href="#as"/><use transform="matrix(0.06790123456790122,0,0,0.06790123456790122,16.29629629629629,0)" xlink:href="#ak"/><use transform="matrix(0.06790123456790122,0,0,0.06790123456790122,29.876543209876534,0)" xlink:href="#R"/><use transform="matrix(0.06790123456790122,0,0,0.06790123456790122,35.24074074074073,0)" xlink:href="#Q"/><use transform="matrix(0.06790123456790122,0,0,0.06790123456790122,42.03086419753085,0)" xlink:href="#K"/><use transform="matrix(0.06790123456790122,0,0,0.06790123456790122,55.6111111111111,0)" xlink:href="#ab"/></g><g id="D"><use transform="matrix(0.06790123456790122,0,0,0.06790123456790122,0,0)" xlink:href="#O"/><use transform="matrix(0.06790123456790122,0,0,0.06790123456790122,13.580246913580243,0)" xlink:href="#P"/><use transform="matrix(0.06790123456790122,0,0,0.06790123456790122,25.80246913580246,0)" xlink:href="#M"/><use transform="matrix(0.06790123456790122,0,0,0.06790123456790122,39.38271604938271,0)" xlink:href="#at"/><use transform="matrix(0.06790123456790122,0,0,0.06790123456790122,56.969135802469125,0)" xlink:href="#ai"/><use transform="matrix(0.06790123456790122,0,0,0.06790123456790122,70.54938271604937,0)" xlink:href="#M"/><use transform="matrix(0.06790123456790122,0,0,0.06790123456790122,84.1296296296296,0)" xlink:href="#Y"/><use transform="matrix(0.06790123456790122,0,0,0.06790123456790122,96.35185185185183,0)" xlink:href="#Z"/><use transform="matrix(0.06790123456790122,0,0,0.06790123456790122,108.57407407407403,0)" xlink:href="#aj"/><use transform="matrix(0.06790123456790122,0,0,0.06790123456790122,128.8765432098765,0)" xlink:href="#K"/><use transform="matrix(0.06790123456790122,0,0,0.06790123456790122,142.45679012345676,0)" xlink:href="#X"/><use transform="matrix(0.06790123456790122,0,0,0.06790123456790122,156.037037037037,0)" xlink:href="#R"/><use transform="matrix(0.06790123456790122,0,0,0.06790123456790122,161.4012345679012,0)" xlink:href="#ag"/><use transform="matrix(0.06790123456790122,0,0,0.06790123456790122,166.76543209876542,0)" xlink:href="#M"/><use transform="matrix(0.06790123456790122,0,0,0.06790123456790122,180.34567901234567,0)" xlink:href="#aa"/><use transform="matrix(0.06790123456790122,0,0,0.06790123456790122,196.64197530864197,0)" xlink:href="#Y"/><use transform="matrix(0.06790123456790122,0,0,0.06790123456790122,208.8641975308642,0)" xlink:href="#ab"/><use transform="matrix(0.06790123456790122,0,0,0.06790123456790122,216.94444444444446,0)" xlink:href="#M"/><use transform="matrix(0.06790123456790122,0,0,0.06790123456790122,230.5246913580247,0)" xlink:href="#M"/><use transform="matrix(0.06790123456790122,0,0,0.06790123456790122,244.10493827160496,0)" xlink:href="#S"/></g><path fill="#3a414a" d="M24 0v-248h52v208h133V0H24" id="aA"/><path fill="#3a414a" d="M185-48c-13 30-37 53-82 52C43 2 14-33 14-96s30-98 90-98c62 0 83 45 84 108H66c0 31 8 55 39 56 18 0 30-7 34-22zm-45-69c5-46-57-63-70-21-2 6-4 13-4 21h74zm-67-91v-5l45-51h45v8l-60 48H73" id="aB"/><path fill="#3a414a" d="M195-6C206 82 75 100 31 46c-4-6-6-13-8-21l49-6c3 16 16 24 34 25 40 0 42-37 40-79-11 22-30 35-61 35-53 0-70-43-70-97 0-56 18-96 73-97 30 0 46 14 59 34l2-30h47zm-90-29c32 0 41-27 41-63 0-35-9-62-40-62-32 0-39 29-40 63 0 36 9 62 39 62" id="aC"/><path fill="#3a414a" d="M185-48c-13 30-37 53-82 52C43 2 14-33 14-96s30-98 90-98c62 0 83 45 84 108H66c0 31 8 55 39 56 18 0 30-7 34-22zm-45-69c5-46-57-63-70-21-2 6-4 13-4 21h74" id="aD"/><path fill="#3a414a" d="M135-194c87-1 58 113 63 194h-50c-7-57 23-157-34-157-59 0-34 97-39 157H25l-1-190h47c2 12-1 28 3 38 12-26 28-41 61-42" id="aE"/><path fill="#3a414a" d="M88-194c31-1 46 15 58 34l-1-101h50l1 261h-48c-2-10 0-23-3-31C134-8 116 4 84 4 32 4 16-41 15-95c0-56 19-97 73-99zm17 164c33 0 40-30 41-66 1-37-9-64-41-64s-38 30-39 65c0 43 13 65 39 65" id="aF"/><g id="E"><use transform="matrix(0.08641975308641973,0,0,0.08641975308641973,0,0)" xlink:href="#aA"/><use transform="matrix(0.08641975308641973,0,0,0.08641975308641973,18.92592592592592,0)" xlink:href="#aB"/><use transform="matrix(0.08641975308641973,0,0,0.08641975308641973,36.209876543209866,0)" xlink:href="#aC"/><use transform="matrix(0.08641975308641973,0,0,0.08641975308641973,55.13580246913578,0)" xlink:href="#aD"/><use transform="matrix(0.08641975308641973,0,0,0.08641975308641973,72.41975308641973,0)" xlink:href="#aE"/><use transform="matrix(0.08641975308641973,0,0,0.08641975308641973,91.34567901234566,0)" xlink:href="#aF"/><use transform="matrix(0.08641975308641973,0,0,0.08641975308641973,110.27160493827158,0)" xlink:href="#aD"/></g><g id="F"><use transform="matrix(0.06790123456790122,0,0,0.06790123456790122,0,0)" xlink:href="#ay"/><use transform="matrix(0.06790123456790122,0,0,0.06790123456790122,16.29629629629629,0)" xlink:href="#ah"/><use transform="matrix(0.06790123456790122,0,0,0.06790123456790122,29.876543209876534,0)" xlink:href="#ao"/><use transform="matrix(0.06790123456790122,0,0,0.06790123456790122,43.45679012345678,0)" xlink:href="#M"/></g><g id="G"><use transform="matrix(0.06790123456790122,0,0,0.06790123456790122,0,0)" xlink:href="#at"/><use transform="matrix(0.06790123456790122,0,0,0.06790123456790122,17.586419753086414,0)" xlink:href="#K"/><use transform="matrix(0.06790123456790122,0,0,0.06790123456790122,31.166666666666657,0)" xlink:href="#L"/><use transform="matrix(0.06790123456790122,0,0,0.06790123456790122,51.469135802469125,0)" xlink:href="#V"/><use transform="matrix(0.06790123456790122,0,0,0.06790123456790122,65.04938271604937,0)" xlink:href="#K"/><use transform="matrix(0.06790123456790122,0,0,0.06790123456790122,78.6296296296296,0)" xlink:href="#P"/><use transform="matrix(0.06790123456790122,0,0,0.06790123456790122,90.85185185185182,0)" xlink:href="#ah"/><use transform="matrix(0.06790123456790122,0,0,0.06790123456790122,104.43209876543206,0)" xlink:href="#S"/><use transform="matrix(0.06790123456790122,0,0,0.06790123456790122,118.0123456790123,0)" xlink:href="#Q"/></g><g id="H"><use transform="matrix(0.06790123456790122,0,0,0.06790123456790122,0,0)" xlink:href="#aa"/><use transform="matrix(0.06790123456790122,0,0,0.06790123456790122,16.29629629629629,0)" xlink:href="#M"/><use transform="matrix(0.06790123456790122,0,0,0.06790123456790122,29.876543209876534,0)" xlink:href="#ab"/><use transform="matrix(0.06790123456790122,0,0,0.06790123456790122,37.95679012345678,0)" xlink:href="#ac"/><use transform="matrix(0.06790123456790122,0,0,0.06790123456790122,50.179012345679,0)" xlink:href="#R"/><use transform="matrix(0.06790123456790122,0,0,0.06790123456790122,55.543209876543195,0)" xlink:href="#Y"/><use transform="matrix(0.06790123456790122,0,0,0.06790123456790122,67.76543209876542,0)" xlink:href="#M"/></g><g id="I"><use transform="matrix(0.06790123456790122,0,0,0.06790123456790122,0,0)" xlink:href="#T"/><use transform="matrix(0.06790123456790122,0,0,0.06790123456790122,13.512345679012341,0)" xlink:href="#U"/><use transform="matrix(0.06790123456790122,0,0,0.06790123456790122,25.734567901234563,0)" xlink:href="#V"/><use transform="matrix(0.06790123456790122,0,0,0.06790123456790122,39.31481481481481,0)" xlink:href="#M"/></g></defs></g></svg>